<svg xmlns="http://www.w3.org/2000/svg" xmlns:xlink="http://www.w3.org/1999/xlink" contentStyleType="text/css" data-diagram-type="SEQUENCE" height="1602px" preserveAspectRatio="none" style="width:1023px;height:1602px;background:#FFFFFF;" version="1.1" viewBox="0 0 1023 1602" width="1023px" zoomAndPan="magnify"><defs/><g><rect fill="none" height="90.2031" style="stroke:#000000;stroke-width:1.5;" width="465.6733" x="42.9102" y="1182.4141"/><g><title>User</title><rect fill="#000000" fill-opacity="0.00000" height="1440.25" width="8" x="19.9551" y="81.2969"/><line style="stroke:#181818;stroke-width:0.5;stroke-dasharray:5.0,5.0;" x1="23" x2="23" y1="81.2969" y2="1521.5469"/></g><g><title>Owner</title><rect fill="#000000" fill-opacity="0.00000" height="1440.25" width="8" x="74.7661" y="81.2969"/><line style="stroke:#181818;stroke-width:0.5;stroke-dasharray:5.0,5.0;" x1="77.9102" x2="77.9102" y1="81.2969" y2="1521.5469"/></g><g><title>Staff</title><rect fill="#000000" fill-opacity="0.00000" height="1440.25" width="8" x="130.0283" y="81.2969"/><line style="stroke:#181818;stroke-width:0.5;stroke-dasharray:5.0,5.0;" x1="133.6221" x2="133.6221" y1="81.2969" y2="1521.5469"/></g><g><title>APRStaking</title><rect fill="#000000" fill-opacity="0.00000" height="1440.25" width="8" x="447.354" y="81.2969"/><line style="stroke:#181818;stroke-width:0.5;stroke-dasharray:5.0,5.0;" x1="451.1245" x2="451.1245" y1="81.2969" y2="1521.5469"/></g><g class="participant participant-head" data-participant="User"><text fill="#000000" font-family="sans-serif" font-size="14" lengthAdjust="spacing" textLength="31.9102" x="5" y="77.9951">User</text><ellipse cx="23.9551" cy="13.5" fill="#E2E2F0" rx="8" ry="8" style="stroke:#181818;stroke-width:0.5;"/><path d="M23.9551,21.5 L23.9551,48.5 M10.9551,29.5 L36.9551,29.5 M23.9551,48.5 L10.9551,63.5 M23.9551,48.5 L36.9551,63.5" fill="none" style="stroke:#181818;stroke-width:0.5;"/></g><g class="participant participant-tail" data-participant="User"><text fill="#000000" font-family="sans-serif" font-size="14" lengthAdjust="spacing" textLength="31.9102" x="5" y="1533.542">User</text><ellipse cx="23.9551" cy="1545.3438" fill="#E2E2F0" rx="8" ry="8" style="stroke:#181818;stroke-width:0.5;"/><path d="M23.9551,1553.3438 L23.9551,1580.3438 M10.9551,1561.3438 L36.9551,1561.3438 M23.9551,1580.3438 L10.9551,1595.3438 M23.9551,1580.3438 L36.9551,1595.3438" fill="none" style="stroke:#181818;stroke-width:0.5;"/></g><g class="participant participant-head" data-participant="Owner"><text fill="#000000" font-family="sans-serif" font-size="14" lengthAdjust="spacing" textLength="45.7119" x="52.9102" y="77.9951">Owner</text><ellipse cx="78.7661" cy="13.5" fill="#E2E2F0" rx="8" ry="8" style="stroke:#181818;stroke-width:0.5;"/><path d="M78.7661,21.5 L78.7661,48.5 M65.7661,29.5 L91.7661,29.5 M78.7661,48.5 L65.7661,63.5 M78.7661,48.5 L91.7661,63.5" fill="none" style="stroke:#181818;stroke-width:0.5;"/></g><g class="participant participant-tail" data-participant="Owner"><text fill="#000000" font-family="sans-serif" font-size="14" lengthAdjust="spacing" textLength="45.7119" x="52.9102" y="1533.542">Owner</text><ellipse cx="78.7661" cy="1545.3438" fill="#E2E2F0" rx="8" ry="8" style="stroke:#181818;stroke-width:0.5;"/><path d="M78.7661,1553.3438 L78.7661,1580.3438 M65.7661,1561.3438 L91.7661,1561.3438 M78.7661,1580.3438 L65.7661,1595.3438 M78.7661,1580.3438 L91.7661,1595.3438" fill="none" style="stroke:#181818;stroke-width:0.5;"/></g><g class="participant participant-head" data-participant="Staff"><text fill="#000000" font-family="sans-serif" font-size="14" lengthAdjust="spacing" textLength="32.8125" x="114.6221" y="77.9951">Staff</text><ellipse cx="134.0283" cy="13.5" fill="#E2E2F0" rx="8" ry="8" style="stroke:#181818;stroke-width:0.5;"/><path d="M134.0283,21.5 L134.0283,48.5 M121.0283,29.5 L147.0283,29.5 M134.0283,48.5 L121.0283,63.5 M134.0283,48.5 L147.0283,63.5" fill="none" style="stroke:#181818;stroke-width:0.5;"/></g><g class="participant participant-tail" data-participant="Staff"><text fill="#000000" font-family="sans-serif" font-size="14" lengthAdjust="spacing" textLength="32.8125" x="114.6221" y="1533.542">Staff</text><ellipse cx="134.0283" cy="1545.3438" fill="#E2E2F0" rx="8" ry="8" style="stroke:#181818;stroke-width:0.5;"/><path d="M134.0283,1553.3438 L134.0283,1580.3438 M121.0283,1561.3438 L147.0283,1561.3438 M134.0283,1580.3438 L121.0283,1595.3438 M134.0283,1580.3438 L147.0283,1595.3438" fill="none" style="stroke:#181818;stroke-width:0.5;"/></g><g class="participant participant-head" data-participant="APRStaking"><rect fill="#E2E2F0" height="30.2969" rx="2.5" ry="2.5" style="stroke:#181818;stroke-width:0.5;" width="94.459" x="404.1245" y="50"/><text fill="#000000" font-family="sans-serif" font-size="14" lengthAdjust="spacing" textLength="80.459" x="411.1245" y="69.9951">APRStaking</text></g><g class="participant participant-tail" data-participant="APRStaking"><rect fill="#E2E2F0" height="30.2969" rx="2.5" ry="2.5" style="stroke:#181818;stroke-width:0.5;" width="94.459" x="404.1245" y="1520.5469"/><text fill="#000000" font-family="sans-serif" font-size="14" lengthAdjust="spacing" textLength="80.459" x="411.1245" y="1540.542">APRStaking</text></g><g class="message" data-participant-1="Owner" data-participant-2="APRStaking"><polygon fill="#181818" points="439.354,111.4297,449.354,115.4297,439.354,119.4297,443.354,115.4297" style="stroke:#181818;stroke-width:1;"/><line style="stroke:#181818;stroke-width:1;" x1="78.7661" x2="445.354" y1="115.4297" y2="115.4297"/><text fill="#000000" font-family="sans-serif" font-size="13" lengthAdjust="spacing" textLength="206.9082" x="85.7661" y="110.3638">initialize(daar, daarion, wallet1)</text></g><path d="M456,96.2969 L456,121.2969 L876,121.2969 L876,106.2969 L866,96.2969 L456,96.2969" fill="#FEFFDD" style="stroke:#181818;stroke-width:0.5;"/><path d="M866,96.2969 L866,106.2969 L876,106.2969 L866,96.2969" fill="#FEFFDD" style="stroke:#181818;stroke-width:0.5;"/><text fill="#000000" font-family="sans-serif" font-size="13" lengthAdjust="spacing" textLength="399.3501" x="462" y="113.3638">Initializes contract with DAAR, DAARION, and owner (wallet1)</text><rect fill="#EEEEEE" height="3" style="stroke:#EEEEEE;stroke-width:1;" width="1016.041" x="0" y="146.9961"/><line style="stroke:#000000;stroke-width:1;" x1="0" x2="1016.041" y1="146.9961" y2="146.9961"/><line style="stroke:#000000;stroke-width:1;" x1="0" x2="1016.041" y1="149.9961" y2="149.9961"/><rect fill="#EEEEEE" height="23.1328" style="stroke:#000000;stroke-width:2;" width="111.0747" x="452.4832" y="136.4297"/><text fill="#000000" font-family="sans-serif" font-size="13" font-weight="bold" lengthAdjust="spacing" textLength="92.5488" x="458.4832" y="152.4966">Staff Top-Up</text><g class="message" data-participant-1="Staff" data-participant-2="APRStaking"><polygon fill="#181818" points="439.354,189.6953,449.354,193.6953,439.354,197.6953,443.354,193.6953" style="stroke:#181818;stroke-width:1;"/><line style="stroke:#181818;stroke-width:1;" x1="134.0283" x2="445.354" y1="193.6953" y2="193.6953"/><text fill="#000000" font-family="sans-serif" font-size="13" lengthAdjust="spacing" textLength="208.8188" x="141.0283" y="188.6294">DAAR.transfer(walletR, amount)</text></g><path d="M456,174.5625 L456,199.5625 L815,199.5625 L815,184.5625 L805,174.5625 L456,174.5625" fill="#FEFFDD" style="stroke:#181818;stroke-width:0.5;"/><path d="M805,174.5625 L805,184.5625 L815,184.5625 L805,174.5625" fill="#FEFFDD" style="stroke:#181818;stroke-width:0.5;"/><text fill="#000000" font-family="sans-serif" font-size="13" lengthAdjust="spacing" textLength="338.6157" x="462" y="191.6294">Staff sends DAAR to walletR (this contract), tax-free</text><g class="message" data-participant-1="APRStaking" data-participant-2="Staff"><polygon fill="#181818" points="145.0283,224.8281,135.0283,228.8281,145.0283,232.8281,141.0283,228.8281" style="stroke:#181818;stroke-width:1;"/><line style="stroke:#181818;stroke-width:1;" x1="139.0283" x2="450.354" y1="228.8281" y2="228.8281"/><text fill="#000000" font-family="sans-serif" font-size="13" lengthAdjust="spacing" textLength="282.4199" x="151.0283" y="223.7622">emit DAAR.Transfer(staff, walletR, amount)</text></g><path d="M456,209.6953 L456,234.6953 L711,234.6953 L711,219.6953 L701,209.6953 L456,209.6953" fill="#FEFFDD" style="stroke:#181818;stroke-width:0.5;"/><path d="M701,209.6953 L701,219.6953 L711,219.6953 L701,209.6953" fill="#FEFFDD" style="stroke:#181818;stroke-width:0.5;"/><text fill="#000000" font-family="sans-serif" font-size="13" lengthAdjust="spacing" textLength="234.7046" x="462" y="226.7622">DAAR contract emits Transfer event</text><rect fill="#EEEEEE" height="3" style="stroke:#EEEEEE;stroke-width:1;" width="1016.041" x="0" y="260.3945"/><line style="stroke:#000000;stroke-width:1;" x1="0" x2="1016.041" y1="260.3945" y2="260.3945"/><line style="stroke:#000000;stroke-width:1;" x1="0" x2="1016.041" y1="263.3945" y2="263.3945"/><rect fill="#EEEEEE" height="23.1328" style="stroke:#000000;stroke-width:2;" width="132.5552" x="441.7429" y="249.8281"/><text fill="#000000" font-family="sans-serif" font-size="13" font-weight="bold" lengthAdjust="spacing" textLength="114.0293" x="447.7429" y="265.895">Stake DAARION</text><g class="message" data-participant-1="User" data-participant-2="APRStaking"><polygon fill="#181818" points="439.354,300.0938,449.354,304.0938,439.354,308.0938,443.354,304.0938" style="stroke:#181818;stroke-width:1;"/><line style="stroke:#181818;stroke-width:1;" x1="23.9551" x2="445.354" y1="304.0938" y2="304.0938"/><text fill="#000000" font-family="sans-serif" font-size="13" lengthAdjust="spacing" textLength="156.2856" x="30.9551" y="299.0278">stakeDAARION(amount)</text></g><g class="message" data-participant-1="APRStaking" data-participant-2="APRStaking"><line style="stroke:#181818;stroke-width:1;" x1="451.354" x2="493.354" y1="333.2266" y2="333.2266"/><line style="stroke:#181818;stroke-width:1;" x1="493.354" x2="493.354" y1="333.2266" y2="346.2266"/><line style="stroke:#181818;stroke-width:1;" x1="452.354" x2="493.354" y1="346.2266" y2="346.2266"/><polygon fill="#181818" points="462.354,342.2266,452.354,346.2266,462.354,350.2266,458.354,346.2266" style="stroke:#181818;stroke-width:1;"/><text fill="#000000" font-family="sans-serif" font-size="13" lengthAdjust="spacing" textLength="96.5796" x="458.354" y="328.1606">_updatePools()</text></g><path d="M566.5796,320.5938 L566.5796,345.5938 L995.5796,345.5938 L995.5796,330.5938 L985.5796,320.5938 L566.5796,320.5938" fill="#FEFFDD" style="stroke:#181818;stroke-width:0.5;"/><path d="M985.5796,320.5938 L985.5796,330.5938 L995.5796,330.5938 L985.5796,320.5938" fill="#FEFFDD" style="stroke:#181818;stroke-width:0.5;"/><text fill="#000000" font-family="sans-serif" font-size="13" lengthAdjust="spacing" textLength="408.8462" x="572.5796" y="337.6606">Detects new DAAR balance, caps DAARION rewards at 4% APR</text><g class="message" data-participant-1="APRStaking" data-participant-2="User"><polygon fill="#181818" points="34.9551,371.3594,24.9551,375.3594,34.9551,379.3594,30.9551,375.3594" style="stroke:#181818;stroke-width:1;"/><line style="stroke:#181818;stroke-width:1;" x1="28.9551" x2="450.354" y1="375.3594" y2="375.3594"/><text fill="#000000" font-family="sans-serif" font-size="13" lengthAdjust="spacing" textLength="278.4399" x="40.9551" y="370.2935">DAARION.transferFrom(user, this, amount)</text></g><g class="message" data-participant-1="APRStaking" data-participant-2="User"><polygon fill="#181818" points="34.9551,400.4922,24.9551,404.4922,34.9551,408.4922,30.9551,404.4922" style="stroke:#181818;stroke-width:1;"/><line style="stroke:#181818;stroke-width:1;" x1="28.9551" x2="450.354" y1="404.4922" y2="404.4922"/><text fill="#000000" font-family="sans-serif" font-size="13" lengthAdjust="spacing" textLength="265.1289" x="40.9551" y="399.4263">emit StakeDAARIONEvent(user, amount)</text></g><rect fill="#EEEEEE" height="3" style="stroke:#EEEEEE;stroke-width:1;" width="1016.041" x="0" y="433.0586"/><line style="stroke:#000000;stroke-width:1;" x1="0" x2="1016.041" y1="433.0586" y2="433.0586"/><line style="stroke:#000000;stroke-width:1;" x1="0" x2="1016.041" y1="436.0586" y2="436.0586"/><rect fill="#EEEEEE" height="23.1328" style="stroke:#000000;stroke-width:2;" width="150.7412" x="432.6499" y="422.4922"/><text fill="#000000" font-family="sans-serif" font-size="13" font-weight="bold" lengthAdjust="spacing" textLength="132.2153" x="438.6499" y="438.5591">Unstake DAARION</text><g class="message" data-participant-1="User" data-participant-2="APRStaking"><polygon fill="#181818" points="439.354,472.7578,449.354,476.7578,439.354,480.7578,443.354,476.7578" style="stroke:#181818;stroke-width:1;"/><line style="stroke:#181818;stroke-width:1;" x1="23.9551" x2="445.354" y1="476.7578" y2="476.7578"/><text fill="#000000" font-family="sans-serif" font-size="13" lengthAdjust="spacing" textLength="172.7642" x="30.9551" y="471.6919">unstakeDAARION(amount)</text></g><g class="message" data-participant-1="APRStaking" data-participant-2="APRStaking"><line style="stroke:#181818;stroke-width:1;" x1="451.354" x2="493.354" y1="505.8906" y2="505.8906"/><line style="stroke:#181818;stroke-width:1;" x1="493.354" x2="493.354" y1="505.8906" y2="518.8906"/><line style="stroke:#181818;stroke-width:1;" x1="452.354" x2="493.354" y1="518.8906" y2="518.8906"/><polygon fill="#181818" points="462.354,514.8906,452.354,518.8906,462.354,522.8906,458.354,518.8906" style="stroke:#181818;stroke-width:1;"/><text fill="#000000" font-family="sans-serif" font-size="13" lengthAdjust="spacing" textLength="96.5796" x="458.354" y="500.8247">_updatePools()</text></g><path d="M566.5796,493.2578 L566.5796,518.2578 L995.5796,518.2578 L995.5796,503.2578 L985.5796,493.2578 L566.5796,493.2578" fill="#FEFFDD" style="stroke:#181818;stroke-width:0.5;"/><path d="M985.5796,493.2578 L985.5796,503.2578 L995.5796,503.2578 L985.5796,493.2578" fill="#FEFFDD" style="stroke:#181818;stroke-width:0.5;"/><text fill="#000000" font-family="sans-serif" font-size="13" lengthAdjust="spacing" textLength="408.8462" x="572.5796" y="510.3247">Detects new DAAR balance, caps DAARION rewards at 4% APR</text><g class="message" data-participant-1="APRStaking" data-participant-2="User"><polygon fill="#181818" points="34.9551,544.0234,24.9551,548.0234,34.9551,552.0234,30.9551,548.0234" style="stroke:#181818;stroke-width:1;"/><line style="stroke:#181818;stroke-width:1;" x1="28.9551" x2="450.354" y1="548.0234" y2="548.0234"/><text fill="#000000" font-family="sans-serif" font-size="13" lengthAdjust="spacing" textLength="213.0146" x="40.9551" y="542.9575">DAARION.transfer(user, amount)</text></g><g class="message" data-participant-1="APRStaking" data-participant-2="User"><polygon fill="#181818" points="34.9551,573.1563,24.9551,577.1563,34.9551,581.1563,30.9551,577.1563" style="stroke:#181818;stroke-width:1;"/><line style="stroke:#181818;stroke-width:1;" x1="28.9551" x2="450.354" y1="577.1563" y2="577.1563"/><text fill="#000000" font-family="sans-serif" font-size="13" lengthAdjust="spacing" textLength="281.4043" x="40.9551" y="572.0903">emit UnstakeDAARIONEvent(user, amount)</text></g><rect fill="#EEEEEE" height="3" style="stroke:#EEEEEE;stroke-width:1;" width="1016.041" x="0" y="605.7227"/><line style="stroke:#000000;stroke-width:1;" x1="0" x2="1016.041" y1="605.7227" y2="605.7227"/><line style="stroke:#000000;stroke-width:1;" x1="0" x2="1016.041" y1="608.7227" y2="608.7227"/><rect fill="#EEEEEE" height="23.1328" style="stroke:#000000;stroke-width:2;" width="105.7871" x="455.127" y="595.1563"/><text fill="#000000" font-family="sans-serif" font-size="13" font-weight="bold" lengthAdjust="spacing" textLength="87.2612" x="461.127" y="611.2231">Stake DAAR</text><g class="message" data-participant-1="User" data-participant-2="APRStaking"><polygon fill="#181818" points="439.354,645.4219,449.354,649.4219,439.354,653.4219,443.354,649.4219" style="stroke:#181818;stroke-width:1;"/><line style="stroke:#181818;stroke-width:1;" x1="23.9551" x2="445.354" y1="649.4219" y2="649.4219"/><text fill="#000000" font-family="sans-serif" font-size="13" lengthAdjust="spacing" textLength="132.4946" x="30.9551" y="644.356">stakeDAAR(amount)</text></g><g class="message" data-participant-1="APRStaking" data-participant-2="APRStaking"><line style="stroke:#181818;stroke-width:1;" x1="451.354" x2="493.354" y1="678.5547" y2="678.5547"/><line style="stroke:#181818;stroke-width:1;" x1="493.354" x2="493.354" y1="678.5547" y2="691.5547"/><line style="stroke:#181818;stroke-width:1;" x1="452.354" x2="493.354" y1="691.5547" y2="691.5547"/><polygon fill="#181818" points="462.354,687.5547,452.354,691.5547,462.354,695.5547,458.354,691.5547" style="stroke:#181818;stroke-width:1;"/><text fill="#000000" font-family="sans-serif" font-size="13" lengthAdjust="spacing" textLength="96.5796" x="458.354" y="673.4888">_updatePools()</text></g><path d="M566.5796,665.9219 L566.5796,690.9219 L980.5796,690.9219 L980.5796,675.9219 L970.5796,665.9219 L566.5796,665.9219" fill="#FEFFDD" style="stroke:#181818;stroke-width:0.5;"/><path d="M970.5796,665.9219 L970.5796,675.9219 L980.5796,675.9219 L970.5796,665.9219" fill="#FEFFDD" style="stroke:#181818;stroke-width:0.5;"/><text fill="#000000" font-family="sans-serif" font-size="13" lengthAdjust="spacing" textLength="393.3262" x="572.5796" y="682.9888">Detects new DAAR balance, caps DAAR rewards at 20% APR</text><g class="message" data-participant-1="APRStaking" data-participant-2="User"><polygon fill="#181818" points="34.9551,716.6875,24.9551,720.6875,34.9551,724.6875,30.9551,720.6875" style="stroke:#181818;stroke-width:1;"/><line style="stroke:#181818;stroke-width:1;" x1="28.9551" x2="450.354" y1="720.6875" y2="720.6875"/><text fill="#000000" font-family="sans-serif" font-size="13" lengthAdjust="spacing" textLength="254.6489" x="40.9551" y="715.6216">DAAR.transferFrom(user, this, amount)</text></g><g class="message" data-participant-1="APRStaking" data-participant-2="User"><polygon fill="#181818" points="34.9551,745.8203,24.9551,749.8203,34.9551,753.8203,30.9551,749.8203" style="stroke:#181818;stroke-width:1;"/><line style="stroke:#181818;stroke-width:1;" x1="28.9551" x2="450.354" y1="749.8203" y2="749.8203"/><text fill="#000000" font-family="sans-serif" font-size="13" lengthAdjust="spacing" textLength="241.3379" x="40.9551" y="744.7544">emit StakeDAAREvent(user, amount)</text></g><rect fill="#EEEEEE" height="3" style="stroke:#EEEEEE;stroke-width:1;" width="1016.041" x="0" y="778.3867"/><line style="stroke:#000000;stroke-width:1;" x1="0" x2="1016.041" y1="778.3867" y2="778.3867"/><line style="stroke:#000000;stroke-width:1;" x1="0" x2="1016.041" y1="781.3867" y2="781.3867"/><rect fill="#EEEEEE" height="23.1328" style="stroke:#000000;stroke-width:2;" width="123.9731" x="446.0339" y="767.8203"/><text fill="#000000" font-family="sans-serif" font-size="13" font-weight="bold" lengthAdjust="spacing" textLength="105.4473" x="452.0339" y="783.8872">Unstake DAAR</text><g class="message" data-participant-1="User" data-participant-2="APRStaking"><polygon fill="#181818" points="439.354,818.0859,449.354,822.0859,439.354,826.0859,443.354,822.0859" style="stroke:#181818;stroke-width:1;"/><line style="stroke:#181818;stroke-width:1;" x1="23.9551" x2="445.354" y1="822.0859" y2="822.0859"/><text fill="#000000" font-family="sans-serif" font-size="13" lengthAdjust="spacing" textLength="148.9731" x="30.9551" y="817.02">unstakeDAAR(amount)</text></g><g class="message" data-participant-1="APRStaking" data-participant-2="APRStaking"><line style="stroke:#181818;stroke-width:1;" x1="451.354" x2="493.354" y1="851.2188" y2="851.2188"/><line style="stroke:#181818;stroke-width:1;" x1="493.354" x2="493.354" y1="851.2188" y2="864.2188"/><line style="stroke:#181818;stroke-width:1;" x1="452.354" x2="493.354" y1="864.2188" y2="864.2188"/><polygon fill="#181818" points="462.354,860.2188,452.354,864.2188,462.354,868.2188,458.354,864.2188" style="stroke:#181818;stroke-width:1;"/><text fill="#000000" font-family="sans-serif" font-size="13" lengthAdjust="spacing" textLength="96.5796" x="458.354" y="846.1528">_updatePools()</text></g><path d="M566.5796,838.5859 L566.5796,863.5859 L980.5796,863.5859 L980.5796,848.5859 L970.5796,838.5859 L566.5796,838.5859" fill="#FEFFDD" style="stroke:#181818;stroke-width:0.5;"/><path d="M970.5796,838.5859 L970.5796,848.5859 L980.5796,848.5859 L970.5796,838.5859" fill="#FEFFDD" style="stroke:#181818;stroke-width:0.5;"/><text fill="#000000" font-family="sans-serif" font-size="13" lengthAdjust="spacing" textLength="393.3262" x="572.5796" y="855.6528">Detects new DAAR balance, caps DAAR rewards at 20% APR</text><g class="message" data-participant-1="APRStaking" data-participant-2="User"><polygon fill="#181818" points="34.9551,889.3516,24.9551,893.3516,34.9551,897.3516,30.9551,893.3516" style="stroke:#181818;stroke-width:1;"/><line style="stroke:#181818;stroke-width:1;" x1="28.9551" x2="450.354" y1="893.3516" y2="893.3516"/><text fill="#000000" font-family="sans-serif" font-size="13" lengthAdjust="spacing" textLength="189.2236" x="40.9551" y="888.2856">DAAR.transfer(user, amount)</text></g><g class="message" data-participant-1="APRStaking" data-participant-2="User"><polygon fill="#181818" points="34.9551,918.4844,24.9551,922.4844,34.9551,926.4844,30.9551,922.4844" style="stroke:#181818;stroke-width:1;"/><line style="stroke:#181818;stroke-width:1;" x1="28.9551" x2="450.354" y1="922.4844" y2="922.4844"/><text fill="#000000" font-family="sans-serif" font-size="13" lengthAdjust="spacing" textLength="257.6133" x="40.9551" y="917.4185">emit UnstakeDAAREvent(user, amount)</text></g><rect fill="#EEEEEE" height="3" style="stroke:#EEEEEE;stroke-width:1;" width="1016.041" x="0" y="951.0508"/><line style="stroke:#000000;stroke-width:1;" x1="0" x2="1016.041" y1="951.0508" y2="951.0508"/><line style="stroke:#000000;stroke-width:1;" x1="0" x2="1016.041" y1="954.0508" y2="954.0508"/><rect fill="#EEEEEE" height="23.1328" style="stroke:#000000;stroke-width:2;" width="126.8867" x="444.5771" y="940.4844"/><text fill="#000000" font-family="sans-serif" font-size="13" font-weight="bold" lengthAdjust="spacing" textLength="108.3608" x="450.5771" y="956.5513">Claim Rewards</text><g class="message" data-participant-1="User" data-participant-2="APRStaking"><polygon fill="#181818" points="439.354,990.75,449.354,994.75,439.354,998.75,443.354,994.75" style="stroke:#181818;stroke-width:1;"/><line style="stroke:#181818;stroke-width:1;" x1="23.9551" x2="445.354" y1="994.75" y2="994.75"/><text fill="#000000" font-family="sans-serif" font-size="13" lengthAdjust="spacing" textLength="94.3706" x="30.9551" y="989.6841">claimReward()</text></g><g class="message" data-participant-1="APRStaking" data-participant-2="APRStaking"><line style="stroke:#181818;stroke-width:1;" x1="451.354" x2="493.354" y1="1023.8828" y2="1023.8828"/><line style="stroke:#181818;stroke-width:1;" x1="493.354" x2="493.354" y1="1023.8828" y2="1036.8828"/><line style="stroke:#181818;stroke-width:1;" x1="452.354" x2="493.354" y1="1036.8828" y2="1036.8828"/><polygon fill="#181818" points="462.354,1032.8828,452.354,1036.8828,462.354,1040.8828,458.354,1036.8828" style="stroke:#181818;stroke-width:1;"/><text fill="#000000" font-family="sans-serif" font-size="13" lengthAdjust="spacing" textLength="96.5796" x="458.354" y="1018.8169">_updatePools()</text></g><path d="M566.5796,1011.25 L566.5796,1036.25 L1005.5796,1036.25 L1005.5796,1021.25 L995.5796,1011.25 L566.5796,1011.25" fill="#FEFFDD" style="stroke:#181818;stroke-width:0.5;"/><path d="M995.5796,1011.25 L995.5796,1021.25 L1005.5796,1021.25 L995.5796,1011.25" fill="#FEFFDD" style="stroke:#181818;stroke-width:0.5;"/><text fill="#000000" font-family="sans-serif" font-size="13" lengthAdjust="spacing" textLength="418.1074" x="572.5796" y="1028.3169">Calculates rewards for DAARION (4% APR) and DAAR (20% APR)</text><g class="message" data-participant-1="APRStaking" data-participant-2="User"><polygon fill="#181818" points="34.9551,1062.0156,24.9551,1066.0156,34.9551,1070.0156,30.9551,1066.0156" style="stroke:#181818;stroke-width:1;"/><line style="stroke:#181818;stroke-width:1;" x1="28.9551" x2="450.354" y1="1066.0156" y2="1066.0156"/><text fill="#000000" font-family="sans-serif" font-size="13" lengthAdjust="spacing" textLength="218.0166" x="40.9551" y="1060.9497">DAAR.transfer(user, totalReward)</text></g><g class="message" data-participant-1="APRStaking" data-participant-2="User"><polygon fill="#181818" points="34.9551,1091.1484,24.9551,1095.1484,34.9551,1099.1484,30.9551,1095.1484" style="stroke:#181818;stroke-width:1;"/><line style="stroke:#181818;stroke-width:1;" x1="28.9551" x2="450.354" y1="1095.1484" y2="1095.1484"/><text fill="#000000" font-family="sans-serif" font-size="13" lengthAdjust="spacing" textLength="261.625" x="40.9551" y="1090.0825">emit RewardClaimed(user, totalReward)</text></g><rect fill="#EEEEEE" height="3" style="stroke:#EEEEEE;stroke-width:1;" width="1016.041" x="0" y="1123.7148"/><line style="stroke:#000000;stroke-width:1;" x1="0" x2="1016.041" y1="1123.7148" y2="1123.7148"/><line style="stroke:#000000;stroke-width:1;" x1="0" x2="1016.041" y1="1126.7148" y2="1126.7148"/><rect fill="#EEEEEE" height="23.1328" style="stroke:#000000;stroke-width:2;" width="199.8594" x="408.0908" y="1113.1484"/><text fill="#000000" font-family="sans-serif" font-size="13" font-weight="bold" lengthAdjust="spacing" textLength="181.3335" x="414.0908" y="1129.2153">Withdraw Excess Tokens</text><g class="message" data-participant-1="Owner" data-participant-2="APRStaking"><polygon fill="#181818" points="439.354,1163.4141,449.354,1167.4141,439.354,1171.4141,443.354,1167.4141" style="stroke:#181818;stroke-width:1;"/><line style="stroke:#181818;stroke-width:1;" x1="78.7661" x2="445.354" y1="1167.4141" y2="1167.4141"/><text fill="#000000" font-family="sans-serif" font-size="13" lengthAdjust="spacing" textLength="256.1914" x="85.7661" y="1162.3481">withdrawExcessTokens(token, amount)</text></g><path d="M42.9102,1182.4141 L107.353,1182.4141 L107.353,1189.5469 L97.353,1199.5469 L42.9102,1199.5469 L42.9102,1182.4141" fill="#EEEEEE" style="stroke:#000000;stroke-width:1.5;"/><rect fill="none" height="90.2031" style="stroke:#000000;stroke-width:1.5;" width="465.6733" x="42.9102" y="1182.4141"/><text fill="#000000" font-family="sans-serif" font-size="13" font-weight="bold" lengthAdjust="spacing" textLength="19.4429" x="57.9102" y="1195.481">alt</text><text fill="#000000" font-family="sans-serif" font-size="11" font-weight="bold" lengthAdjust="spacing" textLength="128.8472" x="122.353" y="1194.6245">[token == DAARION]</text><g class="message" data-participant-1="APRStaking" data-participant-2="Owner"><polygon fill="#181818" points="89.7661,1216.6797,79.7661,1220.6797,89.7661,1224.6797,85.7661,1220.6797" style="stroke:#181818;stroke-width:1;"/><line style="stroke:#181818;stroke-width:1;" x1="83.7661" x2="450.354" y1="1220.6797" y2="1220.6797"/><text fill="#000000" font-family="sans-serif" font-size="13" lengthAdjust="spacing" textLength="224.8276" x="95.7661" y="1215.6138">DAARION.transfer(owner, amount)</text></g><line style="stroke:#000000;stroke-width:1;stroke-dasharray:2.0,2.0;" x1="42.9102" x2="508.5835" y1="1229.6797" y2="1229.6797"/><text fill="#000000" font-family="sans-serif" font-size="11" font-weight="bold" lengthAdjust="spacing" textLength="106.1973" x="47.9102" y="1239.8901">[token == DAAR]</text><g class="message" data-participant-1="APRStaking" data-participant-2="Owner"><polygon fill="#181818" points="89.7661,1260.6172,79.7661,1264.6172,89.7661,1268.6172,85.7661,1264.6172" style="stroke:#181818;stroke-width:1;"/><line style="stroke:#181818;stroke-width:1;" x1="83.7661" x2="450.354" y1="1264.6172" y2="1264.6172"/><text fill="#000000" font-family="sans-serif" font-size="13" lengthAdjust="spacing" textLength="201.0366" x="95.7661" y="1259.5513">DAAR.transfer(owner, amount)</text></g><g class="message" data-participant-1="APRStaking" data-participant-2="Owner"><polygon fill="#181818" points="89.7661,1296.75,79.7661,1300.75,89.7661,1304.75,85.7661,1300.75" style="stroke:#181818;stroke-width:1;"/><line style="stroke:#181818;stroke-width:1;" x1="83.7661" x2="450.354" y1="1300.75" y2="1300.75"/><text fill="#000000" font-family="sans-serif" font-size="13" lengthAdjust="spacing" textLength="348.5879" x="95.7661" y="1295.6841">emit ExcessTokensWithdrawn(owner, amount, token)</text></g><rect fill="#EEEEEE" height="3" style="stroke:#EEEEEE;stroke-width:1;" width="1016.041" x="0" y="1329.3164"/><line style="stroke:#000000;stroke-width:1;" x1="0" x2="1016.041" y1="1329.3164" y2="1329.3164"/><line style="stroke:#000000;stroke-width:1;" x1="0" x2="1016.041" y1="1332.3164" y2="1332.3164"/><rect fill="#EEEEEE" height="23.1328" style="stroke:#000000;stroke-width:2;" width="130.2065" x="442.9172" y="1318.75"/><text fill="#000000" font-family="sans-serif" font-size="13" font-weight="bold" lengthAdjust="spacing" textLength="111.6807" x="448.9172" y="1334.8169">Pause Contract</text><g class="message" data-participant-1="Owner" data-participant-2="APRStaking"><polygon fill="#181818" points="439.354,1369.0156,449.354,1373.0156,439.354,1377.0156,443.354,1373.0156" style="stroke:#181818;stroke-width:1;"/><line style="stroke:#181818;stroke-width:1;" x1="78.7661" x2="445.354" y1="1373.0156" y2="1373.0156"/><text fill="#000000" font-family="sans-serif" font-size="13" lengthAdjust="spacing" textLength="49.3721" x="85.7661" y="1367.9497">pause()</text></g><g class="message" data-participant-1="APRStaking" data-participant-2="Owner"><polygon fill="#181818" points="89.7661,1398.1484,79.7661,1402.1484,89.7661,1406.1484,85.7661,1402.1484" style="stroke:#181818;stroke-width:1;"/><line style="stroke:#181818;stroke-width:1;" x1="83.7661" x2="450.354" y1="1402.1484" y2="1402.1484"/><text fill="#000000" font-family="sans-serif" font-size="13" lengthAdjust="spacing" textLength="121.729" x="95.7661" y="1397.0825">emit Paused event</text></g><rect fill="#EEEEEE" height="3" style="stroke:#EEEEEE;stroke-width:1;" width="1016.041" x="0" y="1430.7148"/><line style="stroke:#000000;stroke-width:1;" x1="0" x2="1016.041" y1="1430.7148" y2="1430.7148"/><line style="stroke:#000000;stroke-width:1;" x1="0" x2="1016.041" y1="1433.7148" y2="1433.7148"/><rect fill="#EEEEEE" height="23.1328" style="stroke:#000000;stroke-width:2;" width="149.7954" x="433.1228" y="1420.1484"/><text fill="#000000" font-family="sans-serif" font-size="13" font-weight="bold" lengthAdjust="spacing" textLength="131.2695" x="439.1228" y="1436.2153">Unpause Contract</text><g class="message" data-participant-1="Owner" data-participant-2="APRStaking"><polygon fill="#181818" points="439.354,1470.4141,449.354,1474.4141,439.354,1478.4141,443.354,1474.4141" style="stroke:#181818;stroke-width:1;"/><line style="stroke:#181818;stroke-width:1;" x1="78.7661" x2="445.354" y1="1474.4141" y2="1474.4141"/><text fill="#000000" font-family="sans-serif" font-size="13" lengthAdjust="spacing" textLength="65.8506" x="85.7661" y="1469.3481">unpause()</text></g><g class="message" data-participant-1="APRStaking" data-participant-2="Owner"><polygon fill="#181818" points="89.7661,1499.5469,79.7661,1503.5469,89.7661,1507.5469,85.7661,1503.5469" style="stroke:#181818;stroke-width:1;"/><line style="stroke:#181818;stroke-width:1;" x1="83.7661" x2="450.354" y1="1503.5469" y2="1503.5469"/><text fill="#000000" font-family="sans-serif" font-size="13" lengthAdjust="spacing" textLength="139.896" x="95.7661" y="1498.481">emit Unpaused event</text></g><!--SRC=[rPLDQzj048Rl-XLpASWWbxRqP731k2daqXWdfiSoaSRnOdbNx8whq5_V_T3AacFL8hJG-Y1BsfbttdaqqcBEIiF6a4xGdzxLiZs_PznkawH2pI8N5Kg6nMfjx-w5V08qdQiayOam_TGDcO6GWWMMuYUb1QBEm1s5aXdKM9R4xoU9L4oWnTEEPt3RXXl8bMHjZK0jU0UV5ujrve-tTrypG5c0yXNJLYYPpuDbU53LT5F1V9w4wtDNJkQj5PTcIxeHiEfuK4V9VKT1m90iZ4y3LetrDQIy4oUVammOdwTRJPHqgjdQGMC6T10SQZ_4siOjHHW35dpPbeOJCH05W7wGvDZwdY8XrxjxgYzQDowg2KfZjRxTNlptOrKWqqgfqgHdleWfjruarS7Z8vOeSyeWnygqJZJLg2qzPFZunecVbVCsPp6yVInVj3gaHxjciLhC9pGNiptQ-qvlDuvBanyp7QMDDACu7UL_G-gios4-crvFGuHEStHzYFu-bowK3- -kKFaZmpDcSiQCpR_AvZNZCiHaMQ8umBgnCGGbTr4XA7qjZYMM-R6qYwRjUcktgFZgfE65cVYDmRD96oAJyKXOCPR1v- -uX0ZVEXMNKXsPRtRJAZJMSFESax4VRBKdwH5TtYZh9Zw4X-YKtT-9E9OC_fQLYPqdO7zzhw70XU-4tp1FSbGQwkjT4HjMaaLoESq3w_OKkSY-HXQC17Ohj51X6NUyGMQLYtinKRtINghex98RMOrKFyeH-erSK-4N]--></g></svg>