
<svg xmlns="http://www.w3.org/2000/svg" xmlns:xlink="http://www.w3.org/1999/xlink" contentStyleType="text/css" height="1166px" preserveAspectRatio="none" style="width:845px;height:1166px;background:#FFFFFF;" version="1.1" viewBox="0 0 845 1166" width="845px" zoomAndPan="magnify"><defs/><g><rect fill="none" height="174.4688" style="stroke:#000000;stroke-width:1.5;" width="613.5" x="20" y="314.0938"/><rect fill="none" height="379.0703" style="stroke:#000000;stroke-width:1.5;" width="818" x="10" y="574.8281"/><rect fill="none" height="232.7344" style="stroke:#000000;stroke-width:1.5;" width="745" x="20" y="670.2266"/><line style="stroke:#181818;stroke-width:0.5;stroke-dasharray:5.0,5.0;" x1="49" x2="49" y1="81.2969" y2="1085.2969"/><line style="stroke:#181818;stroke-width:0.5;stroke-dasharray:5.0,5.0;" x1="103" x2="103" y1="81.2969" y2="1085.2969"/><line style="stroke:#181818;stroke-width:0.5;stroke-dasharray:5.0,5.0;" x1="389" x2="389" y1="81.2969" y2="1085.2969"/><line style="stroke:#181818;stroke-width:0.5;stroke-dasharray:5.0,5.0;" x1="716" x2="716" y1="81.2969" y2="1085.2969"/><line style="stroke:#181818;stroke-width:0.5;stroke-dasharray:5.0,5.0;" x1="791" x2="791" y1="81.2969" y2="1085.2969"/><text fill="#000000" font-family="sans-serif" font-size="14" lengthAdjust="spacing" textLength="32" x="30" y="77.9951">User</text><ellipse cx="49" cy="13.5" fill="#E2E2F0" rx="8" ry="8" style="stroke:#181818;stroke-width:0.5;"/><path d="M49,21.5 L49,48.5 M36,29.5 L62,29.5 M49,48.5 L36,63.5 M49,48.5 L62,63.5 " fill="none" style="stroke:#181818;stroke-width:0.5;"/><text fill="#000000" font-family="sans-serif" font-size="14" lengthAdjust="spacing" textLength="32" x="30" y="1097.292">User</text><ellipse cx="49" cy="1109.0938" fill="#E2E2F0" rx="8" ry="8" style="stroke:#181818;stroke-width:0.5;"/><path d="M49,1117.0938 L49,1144.0938 M36,1125.0938 L62,1125.0938 M49,1144.0938 L36,1159.0938 M49,1144.0938 L62,1159.0938 " fill="none" style="stroke:#181818;stroke-width:0.5;"/><text fill="#000000" font-family="sans-serif" font-size="14" lengthAdjust="spacing" textLength="45" x="78" y="77.9951">Owner</text><ellipse cx="103.5" cy="13.5" fill="#E2E2F0" rx="8" ry="8" style="stroke:#181818;stroke-width:0.5;"/><path d="M103.5,21.5 L103.5,48.5 M90.5,29.5 L116.5,29.5 M103.5,48.5 L90.5,63.5 M103.5,48.5 L116.5,63.5 " fill="none" style="stroke:#181818;stroke-width:0.5;"/><text fill="#000000" font-family="sans-serif" font-size="14" lengthAdjust="spacing" textLength="45" x="78" y="1097.292">Owner</text><ellipse cx="103.5" cy="1109.0938" fill="#E2E2F0" rx="8" ry="8" style="stroke:#181818;stroke-width:0.5;"/><path d="M103.5,1117.0938 L103.5,1144.0938 M90.5,1125.0938 L116.5,1125.0938 M103.5,1144.0938 L90.5,1159.0938 M103.5,1144.0938 L116.5,1159.0938 " fill="none" style="stroke:#181818;stroke-width:0.5;"/><rect fill="#E2E2F0" height="30.2969" rx="2.5" ry="2.5" style="stroke:#181818;stroke-width:0.5;" width="93" x="343" y="50"/><text fill="#000000" font-family="sans-serif" font-size="14" lengthAdjust="spacing" textLength="79" x="350" y="69.9951">APRStaking</text><rect fill="#E2E2F0" height="30.2969" rx="2.5" ry="2.5" style="stroke:#181818;stroke-width:0.5;" width="93" x="343" y="1084.2969"/><text fill="#000000" font-family="sans-serif" font-size="14" lengthAdjust="spacing" textLength="79" x="350" y="1104.292">APRStaking</text><rect fill="#E2E2F0" height="30.2969" rx="2.5" ry="2.5" style="stroke:#181818;stroke-width:0.5;" width="77" x="678" y="50"/><text fill="#000000" font-family="sans-serif" font-size="14" lengthAdjust="spacing" textLength="63" x="685" y="69.9951">DAARION</text><rect fill="#E2E2F0" height="30.2969" rx="2.5" ry="2.5" style="stroke:#181818;stroke-width:0.5;" width="77" x="678" y="1084.2969"/><text fill="#000000" font-family="sans-serif" font-size="14" lengthAdjust="spacing" textLength="63" x="685" y="1104.292">DAARION</text><rect fill="#E2E2F0" height="30.2969" rx="2.5" ry="2.5" style="stroke:#181818;stroke-width:0.5;" width="53" x="765" y="50"/><text fill="#000000" font-family="sans-serif" font-size="14" lengthAdjust="spacing" textLength="39" x="772" y="69.9951">DAAR</text><rect fill="#E2E2F0" height="30.2969" rx="2.5" ry="2.5" style="stroke:#181818;stroke-width:0.5;" width="53" x="765" y="1084.2969"/><text fill="#000000" font-family="sans-serif" font-size="14" lengthAdjust="spacing" textLength="39" x="772" y="1104.292">DAAR</text><rect fill="#EEEEEE" height="3" style="stroke:#EEEEEE;stroke-width:1.0;" width="838" x="0" y="111.8633"/><line style="stroke:#000000;stroke-width:1.0;" x1="0" x2="838" y1="111.8633" y2="111.8633"/><line style="stroke:#000000;stroke-width:1.0;" x1="0" x2="838" y1="114.8633" y2="114.8633"/><rect fill="#EEEEEE" height="23.1328" style="stroke:#000000;stroke-width:2.0;" width="108" x="365" y="101.2969"/><text fill="#000000" font-family="sans-serif" font-size="13" font-weight="bold" lengthAdjust="spacing" textLength="89" x="371" y="117.3638">Initialization</text><polygon fill="#181818" points="377.5,151.5625,387.5,155.5625,377.5,159.5625,381.5,155.5625" style="stroke:#181818;stroke-width:1.0;"/><line style="stroke:#181818;stroke-width:1.0;" x1="103.5" x2="383.5" y1="155.5625" y2="155.5625"/><text fill="#000000" font-family="sans-serif" font-size="13" lengthAdjust="spacing" textLength="262" x="110.5" y="150.4966">initialize(DAAR, DAARION, walletR, owner)</text><line style="stroke:#181818;stroke-width:1.0;" x1="389.5" x2="431.5" y1="184.6953" y2="184.6953"/><line style="stroke:#181818;stroke-width:1.0;" x1="431.5" x2="431.5" y1="184.6953" y2="197.6953"/><line style="stroke:#181818;stroke-width:1.0;" x1="390.5" x2="431.5" y1="197.6953" y2="197.6953"/><polygon fill="#181818" points="400.5,193.6953,390.5,197.6953,400.5,201.6953,396.5,197.6953" style="stroke:#181818;stroke-width:1.0;"/><text fill="#000000" font-family="sans-serif" font-size="13" lengthAdjust="spacing" textLength="145" x="396.5" y="179.6294">Initialize contract state</text><rect fill="#EEEEEE" height="3" style="stroke:#EEEEEE;stroke-width:1.0;" width="838" x="0" y="226.2617"/><line style="stroke:#000000;stroke-width:1.0;" x1="0" x2="838" y1="226.2617" y2="226.2617"/><line style="stroke:#000000;stroke-width:1.0;" x1="0" x2="838" y1="229.2617" y2="229.2617"/><rect fill="#EEEEEE" height="23.1328" style="stroke:#000000;stroke-width:2.0;" width="96" x="371" y="215.6953"/><text fill="#000000" font-family="sans-serif" font-size="13" font-weight="bold" lengthAdjust="spacing" textLength="77" x="377" y="231.7622">Stake APR</text><polygon fill="#181818" points="377.5,265.9609,387.5,269.9609,377.5,273.9609,381.5,269.9609" style="stroke:#181818;stroke-width:1.0;"/><line style="stroke:#181818;stroke-width:1.0;" x1="49" x2="383.5" y1="269.9609" y2="269.9609"/><text fill="#000000" font-family="sans-serif" font-size="13" lengthAdjust="spacing" textLength="120" x="56" y="264.895">stakeAPR(amount)</text><polygon fill="#181818" points="704.5,295.0938,714.5,299.0938,704.5,303.0938,708.5,299.0938" style="stroke:#181818;stroke-width:1.0;"/><line style="stroke:#181818;stroke-width:1.0;" x1="389.5" x2="710.5" y1="299.0938" y2="299.0938"/><text fill="#000000" font-family="sans-serif" font-size="13" lengthAdjust="spacing" textLength="262" x="396.5" y="294.0278">transferFrom(User, APRStaking, amount)</text><path d="M20,314.0938 L84,314.0938 L84,321.2266 L74,331.2266 L20,331.2266 L20,314.0938 " fill="#EEEEEE" style="stroke:#000000;stroke-width:1.5;"/><rect fill="none" height="174.4688" style="stroke:#000000;stroke-width:1.5;" width="613.5" x="20" y="314.0938"/><text fill="#000000" font-family="sans-serif" font-size="13" font-weight="bold" lengthAdjust="spacing" textLength="19" x="35" y="327.1606">alt</text><text fill="#000000" font-family="sans-serif" font-size="11" font-weight="bold" lengthAdjust="spacing" textLength="137" x="99" y="326.3042">[Transfer Successful]</text><line style="stroke:#181818;stroke-width:1.0;" x1="389.5" x2="431.5" y1="352.3594" y2="352.3594"/><line style="stroke:#181818;stroke-width:1.0;" x1="431.5" x2="431.5" y1="352.3594" y2="365.3594"/><line style="stroke:#181818;stroke-width:1.0;" x1="390.5" x2="431.5" y1="365.3594" y2="365.3594"/><polygon fill="#181818" points="400.5,361.3594,390.5,365.3594,400.5,369.3594,396.5,365.3594" style="stroke:#181818;stroke-width:1.0;"/><text fill="#000000" font-family="sans-serif" font-size="13" lengthAdjust="spacing" textLength="225" x="396.5" y="347.2935">Record stake (amount, timestamp)</text><line style="stroke:#181818;stroke-width:1.0;" x1="389.5" x2="431.5" y1="394.4922" y2="394.4922"/><line style="stroke:#181818;stroke-width:1.0;" x1="431.5" x2="431.5" y1="394.4922" y2="407.4922"/><line style="stroke:#181818;stroke-width:1.0;" x1="390.5" x2="431.5" y1="407.4922" y2="407.4922"/><polygon fill="#181818" points="400.5,403.4922,390.5,407.4922,400.5,411.4922,396.5,407.4922" style="stroke:#181818;stroke-width:1.0;"/><text fill="#000000" font-family="sans-serif" font-size="13" lengthAdjust="spacing" textLength="184" x="396.5" y="389.4263">Update totalStakedDAARION</text><polygon fill="#181818" points="60,432.625,50,436.625,60,440.625,56,436.625" style="stroke:#181818;stroke-width:1.0;"/><line style="stroke:#181818;stroke-width:1.0;" x1="54" x2="388.5" y1="436.625" y2="436.625"/><text fill="#000000" font-family="sans-serif" font-size="13" lengthAdjust="spacing" textLength="131" x="66" y="431.5591">emit APRStakeEvent</text><line style="stroke:#000000;stroke-width:1.0;stroke-dasharray:2.0,2.0;" x1="20" x2="633.5" y1="445.625" y2="445.625"/><text fill="#000000" font-family="sans-serif" font-size="11" font-weight="bold" lengthAdjust="spacing" textLength="108" x="25" y="455.8354">[Transfer Failed]</text><polygon fill="#181818" points="60,476.5625,50,480.5625,60,484.5625,56,480.5625" style="stroke:#181818;stroke-width:1.0;"/><line style="stroke:#181818;stroke-width:1.0;" x1="54" x2="388.5" y1="480.5625" y2="480.5625"/><text fill="#000000" font-family="sans-serif" font-size="13" lengthAdjust="spacing" textLength="117" x="66" y="475.4966">Revert transaction</text><rect fill="#EEEEEE" height="3" style="stroke:#EEEEEE;stroke-width:1.0;" width="838" x="0" y="516.1289"/><line style="stroke:#000000;stroke-width:1.0;" x1="0" x2="838" y1="516.1289" y2="516.1289"/><line style="stroke:#000000;stroke-width:1.0;" x1="0" x2="838" y1="519.1289" y2="519.1289"/><rect fill="#EEEEEE" height="23.1328" style="stroke:#000000;stroke-width:2.0;" width="114" x="362" y="505.5625"/><text fill="#000000" font-family="sans-serif" font-size="13" font-weight="bold" lengthAdjust="spacing" textLength="95" x="368" y="521.6294">Unstake APR</text><polygon fill="#181818" points="377.5,555.8281,387.5,559.8281,377.5,563.8281,381.5,559.8281" style="stroke:#181818;stroke-width:1.0;"/><line style="stroke:#181818;stroke-width:1.0;" x1="49" x2="383.5" y1="559.8281" y2="559.8281"/><text fill="#000000" font-family="sans-serif" font-size="13" lengthAdjust="spacing" textLength="136" x="56" y="554.7622">unstakeAPR(amount)</text><path d="M10,574.8281 L74,574.8281 L74,581.9609 L64,591.9609 L10,591.9609 L10,574.8281 " fill="#EEEEEE" style="stroke:#000000;stroke-width:1.5;"/><rect fill="none" height="379.0703" style="stroke:#000000;stroke-width:1.5;" width="818" x="10" y="574.8281"/><text fill="#000000" font-family="sans-serif" font-size="13" font-weight="bold" lengthAdjust="spacing" textLength="19" x="25" y="587.895">alt</text><text fill="#000000" font-family="sans-serif" font-size="11" font-weight="bold" lengthAdjust="spacing" textLength="112" x="89" y="587.0386">[Sufficient Stake]</text><line style="stroke:#181818;stroke-width:1.0;" x1="389.5" x2="431.5" y1="613.0938" y2="613.0938"/><line style="stroke:#181818;stroke-width:1.0;" x1="431.5" x2="431.5" y1="613.0938" y2="626.0938"/><line style="stroke:#181818;stroke-width:1.0;" x1="390.5" x2="431.5" y1="626.0938" y2="626.0938"/><polygon fill="#181818" points="400.5,622.0938,390.5,626.0938,400.5,630.0938,396.5,626.0938" style="stroke:#181818;stroke-width:1.0;"/><text fill="#000000" font-family="sans-serif" font-size="13" lengthAdjust="spacing" textLength="135" x="396.5" y="608.0278">Calculate APR reward</text><polygon fill="#181818" points="779.5,651.2266,789.5,655.2266,779.5,659.2266,783.5,655.2266" style="stroke:#181818;stroke-width:1.0;"/><line style="stroke:#181818;stroke-width:1.0;" x1="389.5" x2="785.5" y1="655.2266" y2="655.2266"/><text fill="#000000" font-family="sans-serif" font-size="13" lengthAdjust="spacing" textLength="230" x="396.5" y="650.1606">transfer reward from walletR to User</text><path d="M20,670.2266 L84,670.2266 L84,677.3594 L74,687.3594 L20,687.3594 L20,670.2266 " fill="#EEEEEE" style="stroke:#000000;stroke-width:1.5;"/><rect fill="none" height="232.7344" style="stroke:#000000;stroke-width:1.5;" width="745" x="20" y="670.2266"/><text fill="#000000" font-family="sans-serif" font-size="13" font-weight="bold" lengthAdjust="spacing" textLength="19" x="35" y="683.2935">alt</text><text fill="#000000" font-family="sans-serif" font-size="11" font-weight="bold" lengthAdjust="spacing" textLength="180" x="99" y="682.437">[Sufficient Reward Balance]</text><line style="stroke:#181818;stroke-width:1.0;" x1="389.5" x2="431.5" y1="708.4922" y2="708.4922"/><line style="stroke:#181818;stroke-width:1.0;" x1="431.5" x2="431.5" y1="708.4922" y2="721.4922"/><line style="stroke:#181818;stroke-width:1.0;" x1="390.5" x2="431.5" y1="721.4922" y2="721.4922"/><polygon fill="#181818" points="400.5,717.4922,390.5,721.4922,400.5,725.4922,396.5,721.4922" style="stroke:#181818;stroke-width:1.0;"/><text fill="#000000" font-family="sans-serif" font-size="13" lengthAdjust="spacing" textLength="131" x="396.5" y="703.4263">Update stake record</text><polygon fill="#181818" points="704.5,746.625,714.5,750.625,704.5,754.625,708.5,750.625" style="stroke:#181818;stroke-width:1.0;"/><line style="stroke:#181818;stroke-width:1.0;" x1="389.5" x2="710.5" y1="750.625" y2="750.625"/><text fill="#000000" font-family="sans-serif" font-size="13" lengthAdjust="spacing" textLength="155" x="396.5" y="745.5591">transfer amount to User</text><line style="stroke:#181818;stroke-width:1.0;" x1="389.5" x2="431.5" y1="779.7578" y2="779.7578"/><line style="stroke:#181818;stroke-width:1.0;" x1="431.5" x2="431.5" y1="779.7578" y2="792.7578"/><line style="stroke:#181818;stroke-width:1.0;" x1="390.5" x2="431.5" y1="792.7578" y2="792.7578"/><polygon fill="#181818" points="400.5,788.7578,390.5,792.7578,400.5,796.7578,396.5,792.7578" style="stroke:#181818;stroke-width:1.0;"/><text fill="#000000" font-family="sans-serif" font-size="13" lengthAdjust="spacing" textLength="184" x="396.5" y="774.6919">Update totalStakedDAARION</text><polygon fill="#181818" points="60,817.8906,50,821.8906,60,825.8906,56,821.8906" style="stroke:#181818;stroke-width:1.0;"/><line style="stroke:#181818;stroke-width:1.0;" x1="54" x2="388.5" y1="821.8906" y2="821.8906"/><text fill="#000000" font-family="sans-serif" font-size="13" lengthAdjust="spacing" textLength="147" x="66" y="816.8247">emit APRUnstakeEvent</text><polygon fill="#181818" points="60,847.0234,50,851.0234,60,855.0234,56,851.0234" style="stroke:#181818;stroke-width:1.0;"/><line style="stroke:#181818;stroke-width:1.0;" x1="54" x2="388.5" y1="851.0234" y2="851.0234"/><text fill="#000000" font-family="sans-serif" font-size="13" lengthAdjust="spacing" textLength="196" x="66" y="845.9575">emit APRRewardClaimed event</text><line style="stroke:#000000;stroke-width:1.0;stroke-dasharray:2.0,2.0;" x1="20" x2="765" y1="860.0234" y2="860.0234"/><text fill="#000000" font-family="sans-serif" font-size="11" font-weight="bold" lengthAdjust="spacing" textLength="191" x="25" y="870.2339">[Insufficient Reward Balance]</text><polygon fill="#181818" points="60,890.9609,50,894.9609,60,898.9609,56,894.9609" style="stroke:#181818;stroke-width:1.0;"/><line style="stroke:#181818;stroke-width:1.0;" x1="54" x2="388.5" y1="894.9609" y2="894.9609"/><text fill="#000000" font-family="sans-serif" font-size="13" lengthAdjust="spacing" textLength="117" x="66" y="889.895">Revert transaction</text><line style="stroke:#000000;stroke-width:1.0;stroke-dasharray:2.0,2.0;" x1="10" x2="828" y1="910.9609" y2="910.9609"/><text fill="#000000" font-family="sans-serif" font-size="11" font-weight="bold" lengthAdjust="spacing" textLength="123" x="15" y="921.1714">[Insufficient Stake]</text><polygon fill="#181818" points="60,941.8984,50,945.8984,60,949.8984,56,945.8984" style="stroke:#181818;stroke-width:1.0;"/><line style="stroke:#181818;stroke-width:1.0;" x1="54" x2="388.5" y1="945.8984" y2="945.8984"/><text fill="#000000" font-family="sans-serif" font-size="13" lengthAdjust="spacing" textLength="117" x="66" y="940.8325">Revert transaction</text><rect fill="#EEEEEE" height="3" style="stroke:#EEEEEE;stroke-width:1.0;" width="838" x="0" y="981.4648"/><line style="stroke:#000000;stroke-width:1.0;" x1="0" x2="838" y1="981.4648" y2="981.4648"/><line style="stroke:#000000;stroke-width:1.0;" x1="0" x2="838" y1="984.4648" y2="984.4648"/><rect fill="#EEEEEE" height="23.1328" style="stroke:#000000;stroke-width:2.0;" width="183" x="327.5" y="970.8984"/><text fill="#000000" font-family="sans-serif" font-size="13" font-weight="bold" lengthAdjust="spacing" textLength="164" x="333.5" y="986.9653">Calculate APR Reward</text><polygon fill="#181818" points="377.5,1021.1641,387.5,1025.1641,377.5,1029.1641,381.5,1025.1641" style="stroke:#181818;stroke-width:1.0;"/><line style="stroke:#181818;stroke-width:1.0;" x1="49" x2="383.5" y1="1025.1641" y2="1025.1641"/><text fill="#000000" font-family="sans-serif" font-size="13" lengthAdjust="spacing" textLength="178" x="56" y="1020.0981">calculateAPRReward(staker)</text><line style="stroke:#181818;stroke-width:1.0;" x1="389.5" x2="431.5" y1="1054.2969" y2="1054.2969"/><line style="stroke:#181818;stroke-width:1.0;" x1="431.5" x2="431.5" y1="1054.2969" y2="1067.2969"/><line style="stroke:#181818;stroke-width:1.0;" x1="390.5" x2="431.5" y1="1067.2969" y2="1067.2969"/><polygon fill="#181818" points="400.5,1063.2969,390.5,1067.2969,400.5,1071.2969,396.5,1067.2969" style="stroke:#181818;stroke-width:1.0;"/><text fill="#000000" font-family="sans-serif" font-size="13" lengthAdjust="spacing" textLength="313" x="396.5" y="1049.231">Calculate reward based on duration and APR rate</text><!--SRC=[fLJBRkCm3BphAtXC0VS72cI1RBO5SjakdCq7S6Mw45QM0ubEW7vzgKTIDwdh5lN1i8KPSZWS23Nt7dQ1lCBq-NXqygtswDbeiqV7iFfJRnd_6_S464P_IYsNi7663LhpZ6nw1ykbIXNWziUOTmVcXAF5hzMghY2-Du-_ApYYjSHoqaVYZHhHBekScn7eth4NoH0OcPAKYAD8Y2hYI5Vy415oii2k7nnVzYgI12YbNMZ9F_Y-MyHIrQXG1ISwMeQ_1GhRGMiAeHsi0da-6ACctVicgu6YfG8s7SbHjx-Pu-_sZSmCt3FQD7HJbBz3J3xS0NNcl4YwFv1ZHJRGg_e7D9QQwG8r7SXpDaPibrqhSatoVUV2hFE3k_8-chSTsbPY9dBozkOcNwFLWut3nsQUZkZVqnpj66sn0A6LRPxY9kxbs4VsXPGwmt-YHQUpfizj9FlWqtedQDSPAsbw8-XR0PWDGLbOZi6d6DcHjKN9Q0Dq9gOCRLpuedVJcKf59LVNXQVoCP_Fjw4f0gU2ga_WyzIBPDR75zDhYnArVnZ4ABaGcy7dcn5TaqChg1S0]--></g></svg>