
<svg xmlns="http://www.w3.org/2000/svg" xmlns:xlink="http://www.w3.org/1999/xlink" contentStyleType="text/css" height="1566px" preserveAspectRatio="none" style="width:863px;height:1566px;background:#FFFFFF;" version="1.1" viewBox="0 0 863 1566" width="863px" zoomAndPan="magnify"><defs/><g><rect fill="none" height="174.4688" style="stroke:#000000;stroke-width:1.5;" width="558.5" x="10" y="457.625"/><rect fill="none" height="274.8672" style="stroke:#000000;stroke-width:1.5;" width="836" x="10" y="718.3594"/><rect fill="none" height="161.4688" style="stroke:#000000;stroke-width:1.5;" width="836" x="10" y="1079.4922"/><line style="stroke:#181818;stroke-width:0.5;stroke-dasharray:5.0,5.0;" x1="39" x2="39" y1="81.2969" y2="1485.7578"/><line style="stroke:#181818;stroke-width:0.5;stroke-dasharray:5.0,5.0;" x1="93" x2="93" y1="81.2969" y2="1485.7578"/><line style="stroke:#181818;stroke-width:0.5;stroke-dasharray:5.0,5.0;" x1="418" x2="418" y1="81.2969" y2="1485.7578"/><line style="stroke:#181818;stroke-width:0.5;stroke-dasharray:5.0,5.0;" x1="734" x2="734" y1="81.2969" y2="1485.7578"/><line style="stroke:#181818;stroke-width:0.5;stroke-dasharray:5.0,5.0;" x1="809" x2="809" y1="81.2969" y2="1485.7578"/><text fill="#000000" font-family="sans-serif" font-size="14" lengthAdjust="spacing" textLength="32" x="20" y="77.9951">User</text><ellipse cx="39" cy="13.5" fill="#E2E2F0" rx="8" ry="8" style="stroke:#181818;stroke-width:0.5;"/><path d="M39,21.5 L39,48.5 M26,29.5 L52,29.5 M39,48.5 L26,63.5 M39,48.5 L52,63.5 " fill="none" style="stroke:#181818;stroke-width:0.5;"/><text fill="#000000" font-family="sans-serif" font-size="14" lengthAdjust="spacing" textLength="32" x="20" y="1497.7529">User</text><ellipse cx="39" cy="1509.5547" fill="#E2E2F0" rx="8" ry="8" style="stroke:#181818;stroke-width:0.5;"/><path d="M39,1517.5547 L39,1544.5547 M26,1525.5547 L52,1525.5547 M39,1544.5547 L26,1559.5547 M39,1544.5547 L52,1559.5547 " fill="none" style="stroke:#181818;stroke-width:0.5;"/><text fill="#000000" font-family="sans-serif" font-size="14" lengthAdjust="spacing" textLength="45" x="68" y="77.9951">Owner</text><ellipse cx="93.5" cy="13.5" fill="#E2E2F0" rx="8" ry="8" style="stroke:#181818;stroke-width:0.5;"/><path d="M93.5,21.5 L93.5,48.5 M80.5,29.5 L106.5,29.5 M93.5,48.5 L80.5,63.5 M93.5,48.5 L106.5,63.5 " fill="none" style="stroke:#181818;stroke-width:0.5;"/><text fill="#000000" font-family="sans-serif" font-size="14" lengthAdjust="spacing" textLength="45" x="68" y="1497.7529">Owner</text><ellipse cx="93.5" cy="1509.5547" fill="#E2E2F0" rx="8" ry="8" style="stroke:#181818;stroke-width:0.5;"/><path d="M93.5,1517.5547 L93.5,1544.5547 M80.5,1525.5547 L106.5,1525.5547 M93.5,1544.5547 L80.5,1559.5547 M93.5,1544.5547 L106.5,1559.5547 " fill="none" style="stroke:#181818;stroke-width:0.5;"/><rect fill="#E2E2F0" height="30.2969" rx="2.5" ry="2.5" style="stroke:#181818;stroke-width:0.5;" width="125" x="356" y="50"/><text fill="#000000" font-family="sans-serif" font-size="14" lengthAdjust="spacing" textLength="111" x="363" y="69.9951">DAARDistributor</text><rect fill="#E2E2F0" height="30.2969" rx="2.5" ry="2.5" style="stroke:#181818;stroke-width:0.5;" width="125" x="356" y="1484.7578"/><text fill="#000000" font-family="sans-serif" font-size="14" lengthAdjust="spacing" textLength="111" x="363" y="1504.7529">DAARDistributor</text><rect fill="#E2E2F0" height="30.2969" rx="2.5" ry="2.5" style="stroke:#181818;stroke-width:0.5;" width="77" x="696" y="50"/><text fill="#000000" font-family="sans-serif" font-size="14" lengthAdjust="spacing" textLength="63" x="703" y="69.9951">DAARION</text><rect fill="#E2E2F0" height="30.2969" rx="2.5" ry="2.5" style="stroke:#181818;stroke-width:0.5;" width="77" x="696" y="1484.7578"/><text fill="#000000" font-family="sans-serif" font-size="14" lengthAdjust="spacing" textLength="63" x="703" y="1504.7529">DAARION</text><rect fill="#E2E2F0" height="30.2969" rx="2.5" ry="2.5" style="stroke:#181818;stroke-width:0.5;" width="53" x="783" y="50"/><text fill="#000000" font-family="sans-serif" font-size="14" lengthAdjust="spacing" textLength="39" x="790" y="69.9951">DAAR</text><rect fill="#E2E2F0" height="30.2969" rx="2.5" ry="2.5" style="stroke:#181818;stroke-width:0.5;" width="53" x="783" y="1484.7578"/><text fill="#000000" font-family="sans-serif" font-size="14" lengthAdjust="spacing" textLength="39" x="790" y="1504.7529">DAAR</text><rect fill="#EEEEEE" height="3" style="stroke:#EEEEEE;stroke-width:1.0;" width="856" x="0" y="111.8633"/><line style="stroke:#000000;stroke-width:1.0;" x1="0" x2="856" y1="111.8633" y2="111.8633"/><line style="stroke:#000000;stroke-width:1.0;" x1="0" x2="856" y1="114.8633" y2="114.8633"/><rect fill="#EEEEEE" height="23.1328" style="stroke:#000000;stroke-width:2.0;" width="108" x="374" y="101.2969"/><text fill="#000000" font-family="sans-serif" font-size="13" font-weight="bold" lengthAdjust="spacing" textLength="89" x="380" y="117.3638">Initialization</text><polygon fill="#181818" points="406.5,151.5625,416.5,155.5625,406.5,159.5625,410.5,155.5625" style="stroke:#181818;stroke-width:1.0;"/><line style="stroke:#181818;stroke-width:1.0;" x1="93.5" x2="412.5" y1="155.5625" y2="155.5625"/><text fill="#000000" font-family="sans-serif" font-size="13" lengthAdjust="spacing" textLength="301" x="100.5" y="150.4966">initialize(DAAR, DAARION, epochLength, owner)</text><line style="stroke:#181818;stroke-width:1.0;" x1="418.5" x2="460.5" y1="184.6953" y2="184.6953"/><line style="stroke:#181818;stroke-width:1.0;" x1="460.5" x2="460.5" y1="184.6953" y2="197.6953"/><line style="stroke:#181818;stroke-width:1.0;" x1="419.5" x2="460.5" y1="197.6953" y2="197.6953"/><polygon fill="#181818" points="429.5,193.6953,419.5,197.6953,429.5,201.6953,425.5,197.6953" style="stroke:#181818;stroke-width:1.0;"/><text fill="#000000" font-family="sans-serif" font-size="13" lengthAdjust="spacing" textLength="145" x="425.5" y="179.6294">Initialize contract state</text><rect fill="#EEEEEE" height="3" style="stroke:#EEEEEE;stroke-width:1.0;" width="856" x="0" y="226.2617"/><line style="stroke:#000000;stroke-width:1.0;" x1="0" x2="856" y1="226.2617" y2="226.2617"/><line style="stroke:#000000;stroke-width:1.0;" x1="0" x2="856" y1="229.2617" y2="229.2617"/><rect fill="#EEEEEE" height="23.1328" style="stroke:#000000;stroke-width:2.0;" width="149" x="353.5" y="215.6953"/><text fill="#000000" font-family="sans-serif" font-size="13" font-weight="bold" lengthAdjust="spacing" textLength="130" x="359.5" y="231.7622">Set Epoch Length</text><polygon fill="#181818" points="406.5,265.9609,416.5,269.9609,406.5,273.9609,410.5,269.9609" style="stroke:#181818;stroke-width:1.0;"/><line style="stroke:#181818;stroke-width:1.0;" x1="93.5" x2="412.5" y1="269.9609" y2="269.9609"/><text fill="#000000" font-family="sans-serif" font-size="13" lengthAdjust="spacing" textLength="196" x="100.5" y="264.895">setEpochLength(epochLength)</text><line style="stroke:#181818;stroke-width:1.0;" x1="418.5" x2="460.5" y1="299.0938" y2="299.0938"/><line style="stroke:#181818;stroke-width:1.0;" x1="460.5" x2="460.5" y1="299.0938" y2="312.0938"/><line style="stroke:#181818;stroke-width:1.0;" x1="419.5" x2="460.5" y1="312.0938" y2="312.0938"/><polygon fill="#181818" points="429.5,308.0938,419.5,312.0938,429.5,316.0938,425.5,312.0938" style="stroke:#181818;stroke-width:1.0;"/><text fill="#000000" font-family="sans-serif" font-size="13" lengthAdjust="spacing" textLength="134" x="425.5" y="294.0278">Update epoch length</text><polygon fill="#181818" points="104.5,337.2266,94.5,341.2266,104.5,345.2266,100.5,341.2266" style="stroke:#181818;stroke-width:1.0;"/><line style="stroke:#181818;stroke-width:1.0;" x1="98.5" x2="417.5" y1="341.2266" y2="341.2266"/><text fill="#000000" font-family="sans-serif" font-size="13" lengthAdjust="spacing" textLength="178" x="110.5" y="336.1606">emit EpochLengthSet event</text><rect fill="#EEEEEE" height="3" style="stroke:#EEEEEE;stroke-width:1.0;" width="856" x="0" y="369.793"/><line style="stroke:#000000;stroke-width:1.0;" x1="0" x2="856" y1="369.793" y2="369.793"/><line style="stroke:#000000;stroke-width:1.0;" x1="0" x2="856" y1="372.793" y2="372.793"/><rect fill="#EEEEEE" height="23.1328" style="stroke:#000000;stroke-width:2.0;" width="133" x="361.5" y="359.2266"/><text fill="#000000" font-family="sans-serif" font-size="13" font-weight="bold" lengthAdjust="spacing" textLength="114" x="367.5" y="375.2935">Stake DAARION</text><polygon fill="#181818" points="406.5,409.4922,416.5,413.4922,406.5,417.4922,410.5,413.4922" style="stroke:#181818;stroke-width:1.0;"/><line style="stroke:#181818;stroke-width:1.0;" x1="39" x2="412.5" y1="413.4922" y2="413.4922"/><text fill="#000000" font-family="sans-serif" font-size="13" lengthAdjust="spacing" textLength="154" x="46" y="408.4263">stakeDAARION(amount)</text><polygon fill="#181818" points="722.5,438.625,732.5,442.625,722.5,446.625,726.5,442.625" style="stroke:#181818;stroke-width:1.0;"/><line style="stroke:#181818;stroke-width:1.0;" x1="418.5" x2="728.5" y1="442.625" y2="442.625"/><text fill="#000000" font-family="sans-serif" font-size="13" lengthAdjust="spacing" textLength="292" x="425.5" y="437.5591">transferFrom(User, DAARDistributor, amount)</text><path d="M10,457.625 L74,457.625 L74,464.7578 L64,474.7578 L10,474.7578 L10,457.625 " fill="#EEEEEE" style="stroke:#000000;stroke-width:1.5;"/><rect fill="none" height="174.4688" style="stroke:#000000;stroke-width:1.5;" width="558.5" x="10" y="457.625"/><text fill="#000000" font-family="sans-serif" font-size="13" font-weight="bold" lengthAdjust="spacing" textLength="19" x="25" y="470.6919">alt</text><text fill="#000000" font-family="sans-serif" font-size="11" font-weight="bold" lengthAdjust="spacing" textLength="137" x="89" y="469.8354">[Transfer Successful]</text><line style="stroke:#181818;stroke-width:1.0;" x1="418.5" x2="460.5" y1="495.8906" y2="495.8906"/><line style="stroke:#181818;stroke-width:1.0;" x1="460.5" x2="460.5" y1="495.8906" y2="508.8906"/><line style="stroke:#181818;stroke-width:1.0;" x1="419.5" x2="460.5" y1="508.8906" y2="508.8906"/><polygon fill="#181818" points="429.5,504.8906,419.5,508.8906,429.5,512.8906,425.5,508.8906" style="stroke:#181818;stroke-width:1.0;"/><text fill="#000000" font-family="sans-serif" font-size="13" lengthAdjust="spacing" textLength="131" x="425.5" y="490.8247">Update stake record</text><line style="stroke:#181818;stroke-width:1.0;" x1="418.5" x2="460.5" y1="538.0234" y2="538.0234"/><line style="stroke:#181818;stroke-width:1.0;" x1="460.5" x2="460.5" y1="538.0234" y2="551.0234"/><line style="stroke:#181818;stroke-width:1.0;" x1="419.5" x2="460.5" y1="551.0234" y2="551.0234"/><polygon fill="#181818" points="429.5,547.0234,419.5,551.0234,429.5,555.0234,425.5,551.0234" style="stroke:#181818;stroke-width:1.0;"/><text fill="#000000" font-family="sans-serif" font-size="13" lengthAdjust="spacing" textLength="125" x="425.5" y="532.9575">Update totalStaked</text><polygon fill="#181818" points="50,576.1563,40,580.1563,50,584.1563,46,580.1563" style="stroke:#181818;stroke-width:1.0;"/><line style="stroke:#181818;stroke-width:1.0;" x1="44" x2="417.5" y1="580.1563" y2="580.1563"/><text fill="#000000" font-family="sans-serif" font-size="13" lengthAdjust="spacing" textLength="106" x="56" y="575.0903">emit StakeEvent</text><line style="stroke:#000000;stroke-width:1.0;stroke-dasharray:2.0,2.0;" x1="10" x2="568.5" y1="589.1563" y2="589.1563"/><text fill="#000000" font-family="sans-serif" font-size="11" font-weight="bold" lengthAdjust="spacing" textLength="108" x="15" y="599.3667">[Transfer Failed]</text><polygon fill="#181818" points="50,620.0938,40,624.0938,50,628.0938,46,624.0938" style="stroke:#181818;stroke-width:1.0;"/><line style="stroke:#181818;stroke-width:1.0;" x1="44" x2="417.5" y1="624.0938" y2="624.0938"/><text fill="#000000" font-family="sans-serif" font-size="13" lengthAdjust="spacing" textLength="117" x="56" y="619.0278">Revert transaction</text><rect fill="#EEEEEE" height="3" style="stroke:#EEEEEE;stroke-width:1.0;" width="856" x="0" y="659.6602"/><line style="stroke:#000000;stroke-width:1.0;" x1="0" x2="856" y1="659.6602" y2="659.6602"/><line style="stroke:#000000;stroke-width:1.0;" x1="0" x2="856" y1="662.6602" y2="662.6602"/><rect fill="#EEEEEE" height="23.1328" style="stroke:#000000;stroke-width:2.0;" width="151" x="352.5" y="649.0938"/><text fill="#000000" font-family="sans-serif" font-size="13" font-weight="bold" lengthAdjust="spacing" textLength="132" x="358.5" y="665.1606">Unstake DAARION</text><polygon fill="#181818" points="406.5,699.3594,416.5,703.3594,406.5,707.3594,410.5,703.3594" style="stroke:#181818;stroke-width:1.0;"/><line style="stroke:#181818;stroke-width:1.0;" x1="39" x2="412.5" y1="703.3594" y2="703.3594"/><text fill="#000000" font-family="sans-serif" font-size="13" lengthAdjust="spacing" textLength="170" x="46" y="698.2935">unstakeDAARION(amount)</text><path d="M10,718.3594 L74,718.3594 L74,725.4922 L64,735.4922 L10,735.4922 L10,718.3594 " fill="#EEEEEE" style="stroke:#000000;stroke-width:1.5;"/><rect fill="none" height="274.8672" style="stroke:#000000;stroke-width:1.5;" width="836" x="10" y="718.3594"/><text fill="#000000" font-family="sans-serif" font-size="13" font-weight="bold" lengthAdjust="spacing" textLength="19" x="25" y="731.4263">alt</text><text fill="#000000" font-family="sans-serif" font-size="11" font-weight="bold" lengthAdjust="spacing" textLength="112" x="89" y="730.5698">[Sufficient Stake]</text><line style="stroke:#181818;stroke-width:1.0;" x1="418.5" x2="460.5" y1="756.625" y2="756.625"/><line style="stroke:#181818;stroke-width:1.0;" x1="460.5" x2="460.5" y1="756.625" y2="769.625"/><line style="stroke:#181818;stroke-width:1.0;" x1="419.5" x2="460.5" y1="769.625" y2="769.625"/><polygon fill="#181818" points="429.5,765.625,419.5,769.625,429.5,773.625,425.5,769.625" style="stroke:#181818;stroke-width:1.0;"/><text fill="#000000" font-family="sans-serif" font-size="13" lengthAdjust="spacing" textLength="168" x="425.5" y="751.5591">Calculate pending rewards</text><polygon fill="#181818" points="797.5,794.7578,807.5,798.7578,797.5,802.7578,801.5,798.7578" style="stroke:#181818;stroke-width:1.0;"/><line style="stroke:#181818;stroke-width:1.0;" x1="418.5" x2="803.5" y1="798.7578" y2="798.7578"/><text fill="#000000" font-family="sans-serif" font-size="13" lengthAdjust="spacing" textLength="155" x="425.5" y="793.6919">transfer rewards to User</text><polygon fill="#181818" points="722.5,823.8906,732.5,827.8906,722.5,831.8906,726.5,827.8906" style="stroke:#181818;stroke-width:1.0;"/><line style="stroke:#181818;stroke-width:1.0;" x1="418.5" x2="728.5" y1="827.8906" y2="827.8906"/><text fill="#000000" font-family="sans-serif" font-size="13" lengthAdjust="spacing" textLength="155" x="425.5" y="822.8247">transfer amount to User</text><line style="stroke:#181818;stroke-width:1.0;" x1="418.5" x2="460.5" y1="857.0234" y2="857.0234"/><line style="stroke:#181818;stroke-width:1.0;" x1="460.5" x2="460.5" y1="857.0234" y2="870.0234"/><line style="stroke:#181818;stroke-width:1.0;" x1="419.5" x2="460.5" y1="870.0234" y2="870.0234"/><polygon fill="#181818" points="429.5,866.0234,419.5,870.0234,429.5,874.0234,425.5,870.0234" style="stroke:#181818;stroke-width:1.0;"/><text fill="#000000" font-family="sans-serif" font-size="13" lengthAdjust="spacing" textLength="131" x="425.5" y="851.9575">Update stake record</text><line style="stroke:#181818;stroke-width:1.0;" x1="418.5" x2="460.5" y1="899.1563" y2="899.1563"/><line style="stroke:#181818;stroke-width:1.0;" x1="460.5" x2="460.5" y1="899.1563" y2="912.1563"/><line style="stroke:#181818;stroke-width:1.0;" x1="419.5" x2="460.5" y1="912.1563" y2="912.1563"/><polygon fill="#181818" points="429.5,908.1563,419.5,912.1563,429.5,916.1563,425.5,912.1563" style="stroke:#181818;stroke-width:1.0;"/><text fill="#000000" font-family="sans-serif" font-size="13" lengthAdjust="spacing" textLength="125" x="425.5" y="894.0903">Update totalStaked</text><polygon fill="#181818" points="50,937.2891,40,941.2891,50,945.2891,46,941.2891" style="stroke:#181818;stroke-width:1.0;"/><line style="stroke:#181818;stroke-width:1.0;" x1="44" x2="417.5" y1="941.2891" y2="941.2891"/><text fill="#000000" font-family="sans-serif" font-size="13" lengthAdjust="spacing" textLength="122" x="56" y="936.2231">emit UnstakeEvent</text><line style="stroke:#000000;stroke-width:1.0;stroke-dasharray:2.0,2.0;" x1="10" x2="846" y1="950.2891" y2="950.2891"/><text fill="#000000" font-family="sans-serif" font-size="11" font-weight="bold" lengthAdjust="spacing" textLength="123" x="15" y="960.4995">[Insufficient Stake]</text><polygon fill="#181818" points="50,981.2266,40,985.2266,50,989.2266,46,985.2266" style="stroke:#181818;stroke-width:1.0;"/><line style="stroke:#181818;stroke-width:1.0;" x1="44" x2="417.5" y1="985.2266" y2="985.2266"/><text fill="#000000" font-family="sans-serif" font-size="13" lengthAdjust="spacing" textLength="117" x="56" y="980.1606">Revert transaction</text><rect fill="#EEEEEE" height="3" style="stroke:#EEEEEE;stroke-width:1.0;" width="856" x="0" y="1020.793"/><line style="stroke:#000000;stroke-width:1.0;" x1="0" x2="856" y1="1020.793" y2="1020.793"/><line style="stroke:#000000;stroke-width:1.0;" x1="0" x2="856" y1="1023.793" y2="1023.793"/><rect fill="#EEEEEE" height="23.1328" style="stroke:#000000;stroke-width:2.0;" width="129" x="363.5" y="1010.2266"/><text fill="#000000" font-family="sans-serif" font-size="13" font-weight="bold" lengthAdjust="spacing" textLength="110" x="369.5" y="1026.2935">Claim Rewards</text><polygon fill="#181818" points="406.5,1060.4922,416.5,1064.4922,406.5,1068.4922,410.5,1064.4922" style="stroke:#181818;stroke-width:1.0;"/><line style="stroke:#181818;stroke-width:1.0;" x1="39" x2="412.5" y1="1064.4922" y2="1064.4922"/><text fill="#000000" font-family="sans-serif" font-size="13" lengthAdjust="spacing" textLength="97" x="46" y="1059.4263">claimRewards()</text><path d="M10,1079.4922 L74,1079.4922 L74,1086.625 L64,1096.625 L10,1096.625 L10,1079.4922 " fill="#EEEEEE" style="stroke:#000000;stroke-width:1.5;"/><rect fill="none" height="161.4688" style="stroke:#000000;stroke-width:1.5;" width="836" x="10" y="1079.4922"/><text fill="#000000" font-family="sans-serif" font-size="13" font-weight="bold" lengthAdjust="spacing" textLength="19" x="25" y="1092.5591">alt</text><text fill="#000000" font-family="sans-serif" font-size="11" font-weight="bold" lengthAdjust="spacing" textLength="184" x="89" y="1091.7026">[Pending Rewards Available]</text><polygon fill="#181818" points="797.5,1113.7578,807.5,1117.7578,797.5,1121.7578,801.5,1117.7578" style="stroke:#181818;stroke-width:1.0;"/><line style="stroke:#181818;stroke-width:1.0;" x1="418.5" x2="803.5" y1="1117.7578" y2="1117.7578"/><text fill="#000000" font-family="sans-serif" font-size="13" lengthAdjust="spacing" textLength="155" x="425.5" y="1112.6919">transfer rewards to User</text><line style="stroke:#181818;stroke-width:1.0;" x1="418.5" x2="460.5" y1="1146.8906" y2="1146.8906"/><line style="stroke:#181818;stroke-width:1.0;" x1="460.5" x2="460.5" y1="1146.8906" y2="1159.8906"/><line style="stroke:#181818;stroke-width:1.0;" x1="419.5" x2="460.5" y1="1159.8906" y2="1159.8906"/><polygon fill="#181818" points="429.5,1155.8906,419.5,1159.8906,429.5,1163.8906,425.5,1159.8906" style="stroke:#181818;stroke-width:1.0;"/><text fill="#000000" font-family="sans-serif" font-size="13" lengthAdjust="spacing" textLength="127" x="425.5" y="1141.8247">Update reward debt</text><polygon fill="#181818" points="50,1185.0234,40,1189.0234,50,1193.0234,46,1189.0234" style="stroke:#181818;stroke-width:1.0;"/><line style="stroke:#181818;stroke-width:1.0;" x1="44" x2="417.5" y1="1189.0234" y2="1189.0234"/><text fill="#000000" font-family="sans-serif" font-size="13" lengthAdjust="spacing" textLength="158" x="56" y="1183.9575">emit ClaimRewardsEvent</text><line style="stroke:#000000;stroke-width:1.0;stroke-dasharray:2.0,2.0;" x1="10" x2="846" y1="1198.0234" y2="1198.0234"/><text fill="#000000" font-family="sans-serif" font-size="11" font-weight="bold" lengthAdjust="spacing" textLength="149" x="15" y="1208.2339">[No Rewards Available]</text><polygon fill="#181818" points="50,1228.9609,40,1232.9609,50,1236.9609,46,1232.9609" style="stroke:#181818;stroke-width:1.0;"/><line style="stroke:#181818;stroke-width:1.0;" x1="44" x2="417.5" y1="1232.9609" y2="1232.9609"/><text fill="#000000" font-family="sans-serif" font-size="13" lengthAdjust="spacing" textLength="117" x="56" y="1227.895">Revert transaction</text><rect fill="#EEEEEE" height="3" style="stroke:#EEEEEE;stroke-width:1.0;" width="856" x="0" y="1268.5273"/><line style="stroke:#000000;stroke-width:1.0;" x1="0" x2="856" y1="1268.5273" y2="1268.5273"/><line style="stroke:#000000;stroke-width:1.0;" x1="0" x2="856" y1="1271.5273" y2="1271.5273"/><rect fill="#EEEEEE" height="23.1328" style="stroke:#000000;stroke-width:2.0;" width="138" x="359" y="1257.9609"/><text fill="#000000" font-family="sans-serif" font-size="13" font-weight="bold" lengthAdjust="spacing" textLength="119" x="365" y="1274.0278">Distribute DAAR</text><polygon fill="#181818" points="406.5,1308.2266,416.5,1312.2266,406.5,1316.2266,410.5,1312.2266" style="stroke:#181818;stroke-width:1.0;"/><line style="stroke:#181818;stroke-width:1.0;" x1="93.5" x2="412.5" y1="1312.2266" y2="1312.2266"/><text fill="#000000" font-family="sans-serif" font-size="13" lengthAdjust="spacing" textLength="106" x="100.5" y="1307.1606">distributeDAAR()</text><line style="stroke:#181818;stroke-width:1.0;" x1="418.5" x2="460.5" y1="1341.3594" y2="1341.3594"/><line style="stroke:#181818;stroke-width:1.0;" x1="460.5" x2="460.5" y1="1341.3594" y2="1354.3594"/><line style="stroke:#181818;stroke-width:1.0;" x1="419.5" x2="460.5" y1="1354.3594" y2="1354.3594"/><polygon fill="#181818" points="429.5,1350.3594,419.5,1354.3594,429.5,1358.3594,425.5,1354.3594" style="stroke:#181818;stroke-width:1.0;"/><text fill="#000000" font-family="sans-serif" font-size="13" lengthAdjust="spacing" textLength="90" x="425.5" y="1336.2935">Update epoch</text><line style="stroke:#181818;stroke-width:1.0;" x1="418.5" x2="460.5" y1="1383.4922" y2="1383.4922"/><line style="stroke:#181818;stroke-width:1.0;" x1="460.5" x2="460.5" y1="1383.4922" y2="1396.4922"/><line style="stroke:#181818;stroke-width:1.0;" x1="419.5" x2="460.5" y1="1396.4922" y2="1396.4922"/><polygon fill="#181818" points="429.5,1392.4922,419.5,1396.4922,429.5,1400.4922,425.5,1396.4922" style="stroke:#181818;stroke-width:1.0;"/><text fill="#000000" font-family="sans-serif" font-size="13" lengthAdjust="spacing" textLength="178" x="425.5" y="1378.4263">Calculate rewards per share</text><line style="stroke:#181818;stroke-width:1.0;" x1="418.5" x2="460.5" y1="1425.625" y2="1425.625"/><line style="stroke:#181818;stroke-width:1.0;" x1="460.5" x2="460.5" y1="1425.625" y2="1438.625"/><line style="stroke:#181818;stroke-width:1.0;" x1="419.5" x2="460.5" y1="1438.625" y2="1438.625"/><polygon fill="#181818" points="429.5,1434.625,419.5,1438.625,429.5,1442.625,425.5,1438.625" style="stroke:#181818;stroke-width:1.0;"/><text fill="#000000" font-family="sans-serif" font-size="13" lengthAdjust="spacing" textLength="116" x="425.5" y="1420.5591">Distribute rewards</text><polygon fill="#181818" points="104.5,1463.7578,94.5,1467.7578,104.5,1471.7578,100.5,1467.7578" style="stroke:#181818;stroke-width:1.0;"/><line style="stroke:#181818;stroke-width:1.0;" x1="98.5" x2="417.5" y1="1467.7578" y2="1467.7578"/><text fill="#000000" font-family="sans-serif" font-size="13" lengthAdjust="spacing" textLength="179" x="110.5" y="1462.6919">emit DAARDistributed event</text><!--SRC=[nLNjQkCm4FolfzYVBhWl44WXf2a4ZlPeBW-maJUDg28PQTt2FVtfmqxTD8cTmb7_CjRCQ7Ps9QDaws3joGbChq_l9hoB6XqhgMeq3FUpsVEzykpKfeaGzCUVX9XEOMaKAzJgBxAo1gPJaRJWzkwBmWHK1wOYBfO9idnwB85gAtU_oBpmhWGR5Mx4CV-av65_0caDkr0FU4Qcv6v538ie3Lbxm9ydNdmOANgcHhfPrrNOEbS3EZ5F4RE52T1UjVxoBj4klP7XR9xnbRg8elFOi3F68xH55hYtZU6pZgFO149Inc_9FJYxBw9mUInRGYU4ck5FYuTL8oLvlssqWF1S4qjo2OwaTTNLPBQCEaLobfloQLDDo4NAahId3_yFgFIWn7FeWkCSKfYeCDc2J9MwiZP-V5yQSx8pCT1Lizs6inOCPg_Z0vcZbesEcTJ1b38l8T9tT9M_9D5hUGSFaUOxu0Bjyx2q4p66-EC3qFQfDm9BuqTcFZm5Surg7m0vo8ip82EqHHQvzx_RldNysLiOIjne-WyTF9bbvaD56nwJvRnNGY_GHpk-Wk583uHyjWQkwkg0Zcl5D-vdSULXwpAlWoM_GqVZ17fbTSTqw8_mQPsg_4lu1m00]--></g></svg>