
<svg xmlns="http://www.w3.org/2000/svg" xmlns:xlink="http://www.w3.org/1999/xlink" contentStyleType="text/css" height="1687px" preserveAspectRatio="none" style="width:839px;height:1687px;background:#FFFFFF;" version="1.1" viewBox="0 0 839 1687" width="839px" zoomAndPan="magnify"><defs/><g><rect fill="none" height="148.4688" style="stroke:#000000;stroke-width:1.5;" width="729.5" x="20" y="284.9609"/><rect fill="none" height="252.6719" style="stroke:#000000;stroke-width:1.5;" width="812.5" x="10" y="561.8281"/><rect fill="none" height="148.4688" style="stroke:#000000;stroke-width:1.5;" width="729.5" x="20" y="585.9609"/><line style="stroke:#181818;stroke-width:0.5;stroke-dasharray:5.0,5.0;" x1="49" x2="49" y1="81.2969" y2="1606.4219"/><line style="stroke:#181818;stroke-width:0.5;stroke-dasharray:5.0,5.0;" x1="103" x2="103" y1="81.2969" y2="1606.4219"/><line style="stroke:#181818;stroke-width:0.5;stroke-dasharray:5.0,5.0;" x1="332" x2="332" y1="81.2969" y2="1606.4219"/><line style="stroke:#181818;stroke-width:0.5;stroke-dasharray:5.0,5.0;" x1="617.5" x2="617.5" y1="81.2969" y2="1606.4219"/><line style="stroke:#181818;stroke-width:0.5;stroke-dasharray:5.0,5.0;" x1="707.5" x2="707.5" y1="81.2969" y2="1606.4219"/><line style="stroke:#181818;stroke-width:0.5;stroke-dasharray:5.0,5.0;" x1="780.5" x2="780.5" y1="81.2969" y2="1606.4219"/><text fill="#000000" font-family="sans-serif" font-size="14" lengthAdjust="spacing" textLength="32" x="30" y="77.9951">User</text><ellipse cx="49" cy="13.5" fill="#E2E2F0" rx="8" ry="8" style="stroke:#181818;stroke-width:0.5;"/><path d="M49,21.5 L49,48.5 M36,29.5 L62,29.5 M49,48.5 L36,63.5 M49,48.5 L62,63.5 " fill="none" style="stroke:#181818;stroke-width:0.5;"/><text fill="#000000" font-family="sans-serif" font-size="14" lengthAdjust="spacing" textLength="32" x="30" y="1618.417">User</text><ellipse cx="49" cy="1630.2188" fill="#E2E2F0" rx="8" ry="8" style="stroke:#181818;stroke-width:0.5;"/><path d="M49,1638.2188 L49,1665.2188 M36,1646.2188 L62,1646.2188 M49,1665.2188 L36,1680.2188 M49,1665.2188 L62,1680.2188 " fill="none" style="stroke:#181818;stroke-width:0.5;"/><text fill="#000000" font-family="sans-serif" font-size="14" lengthAdjust="spacing" textLength="45" x="78" y="77.9951">Owner</text><ellipse cx="103.5" cy="13.5" fill="#E2E2F0" rx="8" ry="8" style="stroke:#181818;stroke-width:0.5;"/><path d="M103.5,21.5 L103.5,48.5 M90.5,29.5 L116.5,29.5 M103.5,48.5 L90.5,63.5 M103.5,48.5 L116.5,63.5 " fill="none" style="stroke:#181818;stroke-width:0.5;"/><text fill="#000000" font-family="sans-serif" font-size="14" lengthAdjust="spacing" textLength="45" x="78" y="1618.417">Owner</text><ellipse cx="103.5" cy="1630.2188" fill="#E2E2F0" rx="8" ry="8" style="stroke:#181818;stroke-width:0.5;"/><path d="M103.5,1638.2188 L103.5,1665.2188 M90.5,1646.2188 L116.5,1646.2188 M103.5,1665.2188 L90.5,1680.2188 M103.5,1665.2188 L116.5,1680.2188 " fill="none" style="stroke:#181818;stroke-width:0.5;"/><rect fill="#E2E2F0" height="30.2969" rx="2.5" ry="2.5" style="stroke:#181818;stroke-width:0.5;" width="53" x="306" y="50"/><text fill="#000000" font-family="sans-serif" font-size="14" lengthAdjust="spacing" textLength="39" x="313" y="69.9951">DAAR</text><rect fill="#E2E2F0" height="30.2969" rx="2.5" ry="2.5" style="stroke:#181818;stroke-width:0.5;" width="53" x="306" y="1605.4219"/><text fill="#000000" font-family="sans-serif" font-size="14" lengthAdjust="spacing" textLength="39" x="313" y="1625.417">DAAR</text><rect fill="#E2E2F0" height="30.2969" rx="2.5" ry="2.5" style="stroke:#181818;stroke-width:0.5;" width="74" x="580.5" y="50"/><text fill="#000000" font-family="sans-serif" font-size="14" lengthAdjust="spacing" textLength="60" x="587.5" y="69.9951">recipient</text><rect fill="#E2E2F0" height="30.2969" rx="2.5" ry="2.5" style="stroke:#181818;stroke-width:0.5;" width="74" x="580.5" y="1605.4219"/><text fill="#000000" font-family="sans-serif" font-size="14" lengthAdjust="spacing" textLength="60" x="587.5" y="1625.417">recipient</text><rect fill="#E2E2F0" height="30.2969" rx="2.5" ry="2.5" style="stroke:#181818;stroke-width:0.5;" width="64" x="675.5" y="50"/><text fill="#000000" font-family="sans-serif" font-size="14" lengthAdjust="spacing" textLength="50" x="682.5" y="69.9951">walletD</text><rect fill="#E2E2F0" height="30.2969" rx="2.5" ry="2.5" style="stroke:#181818;stroke-width:0.5;" width="64" x="675.5" y="1605.4219"/><text fill="#000000" font-family="sans-serif" font-size="14" lengthAdjust="spacing" textLength="50" x="682.5" y="1625.417">walletD</text><rect fill="#E2E2F0" height="30.2969" rx="2.5" ry="2.5" style="stroke:#181818;stroke-width:0.5;" width="63" x="749.5" y="50"/><text fill="#000000" font-family="sans-serif" font-size="14" lengthAdjust="spacing" textLength="49" x="756.5" y="69.9951">sender</text><rect fill="#E2E2F0" height="30.2969" rx="2.5" ry="2.5" style="stroke:#181818;stroke-width:0.5;" width="63" x="749.5" y="1605.4219"/><text fill="#000000" font-family="sans-serif" font-size="14" lengthAdjust="spacing" textLength="49" x="756.5" y="1625.417">sender</text><rect fill="#EEEEEE" height="3" style="stroke:#EEEEEE;stroke-width:1.0;" width="832.5" x="0" y="111.8633"/><line style="stroke:#000000;stroke-width:1.0;" x1="0" x2="832.5" y1="111.8633" y2="111.8633"/><line style="stroke:#000000;stroke-width:1.0;" x1="0" x2="832.5" y1="114.8633" y2="114.8633"/><rect fill="#EEEEEE" height="23.1328" style="stroke:#000000;stroke-width:2.0;" width="108" x="362.25" y="101.2969"/><text fill="#000000" font-family="sans-serif" font-size="13" font-weight="bold" lengthAdjust="spacing" textLength="89" x="368.25" y="117.3638">Initialization</text><polygon fill="#181818" points="320.5,151.5625,330.5,155.5625,320.5,159.5625,324.5,155.5625" style="stroke:#181818;stroke-width:1.0;"/><line style="stroke:#181818;stroke-width:1.0;" x1="103.5" x2="326.5" y1="155.5625" y2="155.5625"/><text fill="#000000" font-family="sans-serif" font-size="13" lengthAdjust="spacing" textLength="205" x="110.5" y="150.4966">initialize(walletD, owner, walletR)</text><line style="stroke:#181818;stroke-width:1.0;" x1="332.5" x2="374.5" y1="184.6953" y2="184.6953"/><line style="stroke:#181818;stroke-width:1.0;" x1="374.5" x2="374.5" y1="184.6953" y2="197.6953"/><line style="stroke:#181818;stroke-width:1.0;" x1="333.5" x2="374.5" y1="197.6953" y2="197.6953"/><polygon fill="#181818" points="343.5,193.6953,333.5,197.6953,343.5,201.6953,339.5,197.6953" style="stroke:#181818;stroke-width:1.0;"/><text fill="#000000" font-family="sans-serif" font-size="13" lengthAdjust="spacing" textLength="145" x="339.5" y="179.6294">Initialize contract state</text><rect fill="#EEEEEE" height="3" style="stroke:#EEEEEE;stroke-width:1.0;" width="832.5" x="0" y="226.2617"/><line style="stroke:#000000;stroke-width:1.0;" x1="0" x2="832.5" y1="226.2617" y2="226.2617"/><line style="stroke:#000000;stroke-width:1.0;" x1="0" x2="832.5" y1="229.2617" y2="229.2617"/><rect fill="#EEEEEE" height="23.1328" style="stroke:#000000;stroke-width:2.0;" width="148" x="342.25" y="215.6953"/><text fill="#000000" font-family="sans-serif" font-size="13" font-weight="bold" lengthAdjust="spacing" textLength="129" x="348.25" y="231.7622">Transfer with Fee</text><polygon fill="#181818" points="320.5,265.9609,330.5,269.9609,320.5,273.9609,324.5,269.9609" style="stroke:#181818;stroke-width:1.0;"/><line style="stroke:#181818;stroke-width:1.0;" x1="49" x2="326.5" y1="269.9609" y2="269.9609"/><text fill="#000000" font-family="sans-serif" font-size="13" lengthAdjust="spacing" textLength="173" x="56" y="264.895">transfer(recipient, amount)</text><path d="M20,284.9609 L84,284.9609 L84,292.0938 L74,302.0938 L20,302.0938 L20,284.9609 " fill="#EEEEEE" style="stroke:#000000;stroke-width:1.5;"/><rect fill="none" height="148.4688" style="stroke:#000000;stroke-width:1.5;" width="729.5" x="20" y="284.9609"/><text fill="#000000" font-family="sans-serif" font-size="13" font-weight="bold" lengthAdjust="spacing" textLength="19" x="35" y="298.0278">alt</text><text fill="#000000" font-family="sans-serif" font-size="11" font-weight="bold" lengthAdjust="spacing" textLength="190" x="99" y="297.1714">[Sender is excluded from fee]</text><polygon fill="#181818" points="605.5,319.2266,615.5,323.2266,605.5,327.2266,609.5,323.2266" style="stroke:#181818;stroke-width:1.0;"/><line style="stroke:#181818;stroke-width:1.0;" x1="332.5" x2="611.5" y1="323.2266" y2="323.2266"/><text fill="#000000" font-family="sans-serif" font-size="13" lengthAdjust="spacing" textLength="104" x="339.5" y="318.1606">transfer amount</text><line style="stroke:#000000;stroke-width:1.0;stroke-dasharray:2.0,2.0;" x1="20" x2="749.5" y1="332.2266" y2="332.2266"/><text fill="#000000" font-family="sans-serif" font-size="11" font-weight="bold" lengthAdjust="spacing" textLength="215" x="25" y="342.437">[Sender is not excluded from fee]</text><polygon fill="#181818" points="695.5,363.1641,705.5,367.1641,695.5,371.1641,699.5,367.1641" style="stroke:#181818;stroke-width:1.0;"/><line style="stroke:#181818;stroke-width:1.0;" x1="332.5" x2="701.5" y1="367.1641" y2="367.1641"/><text fill="#000000" font-family="sans-serif" font-size="13" lengthAdjust="spacing" textLength="351" x="339.5" y="362.0981">transfer feeAmount (amount * transactionFee / 10000)</text><polygon fill="#181818" points="605.5,392.2969,615.5,396.2969,605.5,400.2969,609.5,396.2969" style="stroke:#181818;stroke-width:1.0;"/><line style="stroke:#181818;stroke-width:1.0;" x1="332.5" x2="611.5" y1="396.2969" y2="396.2969"/><text fill="#000000" font-family="sans-serif" font-size="13" lengthAdjust="spacing" textLength="188" x="339.5" y="391.231">transfer amount - feeAmount</text><polygon fill="#181818" points="60,421.4297,50,425.4297,60,429.4297,56,425.4297" style="stroke:#181818;stroke-width:1.0;"/><line style="stroke:#181818;stroke-width:1.0;" x1="54" x2="331.5" y1="425.4297" y2="425.4297"/><text fill="#000000" font-family="sans-serif" font-size="13" lengthAdjust="spacing" textLength="175" x="66" y="420.3638">emit TransferWithFee event</text><rect fill="#EEEEEE" height="3" style="stroke:#EEEEEE;stroke-width:1.0;" width="832.5" x="0" y="460.9961"/><line style="stroke:#000000;stroke-width:1.0;" x1="0" x2="832.5" y1="460.9961" y2="460.9961"/><line style="stroke:#000000;stroke-width:1.0;" x1="0" x2="832.5" y1="463.9961" y2="463.9961"/><rect fill="#EEEEEE" height="23.1328" style="stroke:#000000;stroke-width:2.0;" width="188" x="322.25" y="450.4297"/><text fill="#000000" font-family="sans-serif" font-size="13" font-weight="bold" lengthAdjust="spacing" textLength="169" x="328.25" y="466.4966">Transfer from with Fee</text><polygon fill="#181818" points="320.5,500.6953,330.5,504.6953,320.5,508.6953,324.5,504.6953" style="stroke:#181818;stroke-width:1.0;"/><line style="stroke:#181818;stroke-width:1.0;" x1="49" x2="326.5" y1="504.6953" y2="504.6953"/><text fill="#000000" font-family="sans-serif" font-size="13" lengthAdjust="spacing" textLength="258" x="56" y="499.6294">transferFrom(sender, recipient, amount)</text><line style="stroke:#181818;stroke-width:1.0;" x1="332.5" x2="374.5" y1="533.8281" y2="533.8281"/><line style="stroke:#181818;stroke-width:1.0;" x1="374.5" x2="374.5" y1="533.8281" y2="546.8281"/><line style="stroke:#181818;stroke-width:1.0;" x1="333.5" x2="374.5" y1="546.8281" y2="546.8281"/><polygon fill="#181818" points="343.5,542.8281,333.5,546.8281,343.5,550.8281,339.5,546.8281" style="stroke:#181818;stroke-width:1.0;"/><text fill="#000000" font-family="sans-serif" font-size="13" lengthAdjust="spacing" textLength="185" x="339.5" y="528.7622">check allowance and balance</text><path d="M10,561.8281 L74,561.8281 L74,568.9609 L64,578.9609 L10,578.9609 L10,561.8281 " fill="#EEEEEE" style="stroke:#000000;stroke-width:1.5;"/><rect fill="none" height="252.6719" style="stroke:#000000;stroke-width:1.5;" width="812.5" x="10" y="561.8281"/><text fill="#000000" font-family="sans-serif" font-size="13" font-weight="bold" lengthAdjust="spacing" textLength="19" x="25" y="574.895">alt</text><text fill="#000000" font-family="sans-serif" font-size="11" font-weight="bold" lengthAdjust="spacing" textLength="224" x="89" y="574.0386">[Allowance and balance sufficient]</text><path d="M20,585.9609 L84,585.9609 L84,593.0938 L74,603.0938 L20,603.0938 L20,585.9609 " fill="#EEEEEE" style="stroke:#000000;stroke-width:1.5;"/><rect fill="none" height="148.4688" style="stroke:#000000;stroke-width:1.5;" width="729.5" x="20" y="585.9609"/><text fill="#000000" font-family="sans-serif" font-size="13" font-weight="bold" lengthAdjust="spacing" textLength="19" x="35" y="599.0278">alt</text><text fill="#000000" font-family="sans-serif" font-size="11" font-weight="bold" lengthAdjust="spacing" textLength="190" x="99" y="598.1714">[Sender is excluded from fee]</text><polygon fill="#181818" points="605.5,620.2266,615.5,624.2266,605.5,628.2266,609.5,624.2266" style="stroke:#181818;stroke-width:1.0;"/><line style="stroke:#181818;stroke-width:1.0;" x1="332.5" x2="611.5" y1="624.2266" y2="624.2266"/><text fill="#000000" font-family="sans-serif" font-size="13" lengthAdjust="spacing" textLength="104" x="339.5" y="619.1606">transfer amount</text><line style="stroke:#000000;stroke-width:1.0;stroke-dasharray:2.0,2.0;" x1="20" x2="749.5" y1="633.2266" y2="633.2266"/><text fill="#000000" font-family="sans-serif" font-size="11" font-weight="bold" lengthAdjust="spacing" textLength="215" x="25" y="643.437">[Sender is not excluded from fee]</text><polygon fill="#181818" points="695.5,664.1641,705.5,668.1641,695.5,672.1641,699.5,668.1641" style="stroke:#181818;stroke-width:1.0;"/><line style="stroke:#181818;stroke-width:1.0;" x1="332.5" x2="701.5" y1="668.1641" y2="668.1641"/><text fill="#000000" font-family="sans-serif" font-size="13" lengthAdjust="spacing" textLength="351" x="339.5" y="663.0981">transfer feeAmount (amount * transactionFee / 10000)</text><polygon fill="#181818" points="605.5,693.2969,615.5,697.2969,605.5,701.2969,609.5,697.2969" style="stroke:#181818;stroke-width:1.0;"/><line style="stroke:#181818;stroke-width:1.0;" x1="332.5" x2="611.5" y1="697.2969" y2="697.2969"/><text fill="#000000" font-family="sans-serif" font-size="13" lengthAdjust="spacing" textLength="188" x="339.5" y="692.231">transfer amount - feeAmount</text><polygon fill="#181818" points="60,722.4297,50,726.4297,60,730.4297,56,726.4297" style="stroke:#181818;stroke-width:1.0;"/><line style="stroke:#181818;stroke-width:1.0;" x1="54" x2="331.5" y1="726.4297" y2="726.4297"/><text fill="#000000" font-family="sans-serif" font-size="13" lengthAdjust="spacing" textLength="175" x="66" y="721.3638">emit TransferWithFee event</text><polygon fill="#181818" points="769,758.5625,779,762.5625,769,766.5625,773,762.5625" style="stroke:#181818;stroke-width:1.0;"/><line style="stroke:#181818;stroke-width:1.0;" x1="332.5" x2="775" y1="762.5625" y2="762.5625"/><text fill="#000000" font-family="sans-serif" font-size="13" lengthAdjust="spacing" textLength="125" x="339.5" y="757.4966">decrease allowance</text><line style="stroke:#000000;stroke-width:1.0;stroke-dasharray:2.0,2.0;" x1="10" x2="822.5" y1="771.5625" y2="771.5625"/><text fill="#000000" font-family="sans-serif" font-size="11" font-weight="bold" lengthAdjust="spacing" textLength="225" x="15" y="781.7729">[Allowance or balance insufficient]</text><polygon fill="#181818" points="60,802.5,50,806.5,60,810.5,56,806.5" style="stroke:#181818;stroke-width:1.0;"/><line style="stroke:#181818;stroke-width:1.0;" x1="54" x2="331.5" y1="806.5" y2="806.5"/><text fill="#000000" font-family="sans-serif" font-size="13" lengthAdjust="spacing" textLength="114" x="66" y="801.4341">revert transaction</text><rect fill="#EEEEEE" height="3" style="stroke:#EEEEEE;stroke-width:1.0;" width="832.5" x="0" y="842.0664"/><line style="stroke:#000000;stroke-width:1.0;" x1="0" x2="832.5" y1="842.0664" y2="842.0664"/><line style="stroke:#000000;stroke-width:1.0;" x1="0" x2="832.5" y1="845.0664" y2="845.0664"/><rect fill="#EEEEEE" height="23.1328" style="stroke:#000000;stroke-width:2.0;" width="165" x="333.75" y="831.5"/><text fill="#000000" font-family="sans-serif" font-size="13" font-weight="bold" lengthAdjust="spacing" textLength="146" x="339.75" y="847.5669">Set Transaction Fee</text><polygon fill="#181818" points="320.5,881.7656,330.5,885.7656,320.5,889.7656,324.5,885.7656" style="stroke:#181818;stroke-width:1.0;"/><line style="stroke:#181818;stroke-width:1.0;" x1="103.5" x2="326.5" y1="885.7656" y2="885.7656"/><text fill="#000000" font-family="sans-serif" font-size="13" lengthAdjust="spacing" textLength="175" x="110.5" y="880.6997">setTransactionFee(newFee)</text><line style="stroke:#181818;stroke-width:1.0;" x1="332.5" x2="374.5" y1="914.8984" y2="914.8984"/><line style="stroke:#181818;stroke-width:1.0;" x1="374.5" x2="374.5" y1="914.8984" y2="927.8984"/><line style="stroke:#181818;stroke-width:1.0;" x1="333.5" x2="374.5" y1="927.8984" y2="927.8984"/><polygon fill="#181818" points="343.5,923.8984,333.5,927.8984,343.5,931.8984,339.5,927.8984" style="stroke:#181818;stroke-width:1.0;"/><text fill="#000000" font-family="sans-serif" font-size="13" lengthAdjust="spacing" textLength="144" x="339.5" y="909.8325">update transactionFee</text><polygon fill="#181818" points="114.5,953.0313,104.5,957.0313,114.5,961.0313,110.5,957.0313" style="stroke:#181818;stroke-width:1.0;"/><line style="stroke:#181818;stroke-width:1.0;" x1="108.5" x2="331.5" y1="957.0313" y2="957.0313"/><text fill="#000000" font-family="sans-serif" font-size="13" lengthAdjust="spacing" textLength="192" x="120.5" y="951.9653">emit TransactionFeeSet event</text><rect fill="#EEEEEE" height="3" style="stroke:#EEEEEE;stroke-width:1.0;" width="832.5" x="0" y="985.5977"/><line style="stroke:#000000;stroke-width:1.0;" x1="0" x2="832.5" y1="985.5977" y2="985.5977"/><line style="stroke:#000000;stroke-width:1.0;" x1="0" x2="832.5" y1="988.5977" y2="988.5977"/><rect fill="#EEEEEE" height="23.1328" style="stroke:#000000;stroke-width:2.0;" width="105" x="363.75" y="975.0313"/><text fill="#000000" font-family="sans-serif" font-size="13" font-weight="bold" lengthAdjust="spacing" textLength="86" x="369.75" y="991.0981">Set WalletD</text><polygon fill="#181818" points="320.5,1025.2969,330.5,1029.2969,320.5,1033.2969,324.5,1029.2969" style="stroke:#181818;stroke-width:1.0;"/><line style="stroke:#181818;stroke-width:1.0;" x1="103.5" x2="326.5" y1="1029.2969" y2="1029.2969"/><text fill="#000000" font-family="sans-serif" font-size="13" lengthAdjust="spacing" textLength="141" x="110.5" y="1024.231">setWalletD(newWallet)</text><line style="stroke:#181818;stroke-width:1.0;" x1="332.5" x2="374.5" y1="1058.4297" y2="1058.4297"/><line style="stroke:#181818;stroke-width:1.0;" x1="374.5" x2="374.5" y1="1058.4297" y2="1071.4297"/><line style="stroke:#181818;stroke-width:1.0;" x1="333.5" x2="374.5" y1="1071.4297" y2="1071.4297"/><polygon fill="#181818" points="343.5,1067.4297,333.5,1071.4297,343.5,1075.4297,339.5,1071.4297" style="stroke:#181818;stroke-width:1.0;"/><text fill="#000000" font-family="sans-serif" font-size="13" lengthAdjust="spacing" textLength="95" x="339.5" y="1053.3638">update walletD</text><polygon fill="#181818" points="114.5,1096.5625,104.5,1100.5625,114.5,1104.5625,110.5,1100.5625" style="stroke:#181818;stroke-width:1.0;"/><line style="stroke:#181818;stroke-width:1.0;" x1="108.5" x2="331.5" y1="1100.5625" y2="1100.5625"/><text fill="#000000" font-family="sans-serif" font-size="13" lengthAdjust="spacing" textLength="143" x="120.5" y="1095.4966">emit WalletDSet event</text><rect fill="#EEEEEE" height="3" style="stroke:#EEEEEE;stroke-width:1.0;" width="832.5" x="0" y="1129.1289"/><line style="stroke:#000000;stroke-width:1.0;" x1="0" x2="832.5" y1="1129.1289" y2="1129.1289"/><line style="stroke:#000000;stroke-width:1.0;" x1="0" x2="832.5" y1="1132.1289" y2="1132.1289"/><rect fill="#EEEEEE" height="23.1328" style="stroke:#000000;stroke-width:2.0;" width="206" x="313.25" y="1118.5625"/><text fill="#000000" font-family="sans-serif" font-size="13" font-weight="bold" lengthAdjust="spacing" textLength="187" x="319.25" y="1134.6294">Exclude/Include from Fee</text><polygon fill="#181818" points="320.5,1168.8281,330.5,1172.8281,320.5,1176.8281,324.5,1172.8281" style="stroke:#181818;stroke-width:1.0;"/><line style="stroke:#181818;stroke-width:1.0;" x1="103.5" x2="326.5" y1="1172.8281" y2="1172.8281"/><text fill="#000000" font-family="sans-serif" font-size="13" lengthAdjust="spacing" textLength="166" x="110.5" y="1167.7622">excludeFromFee(account)</text><line style="stroke:#181818;stroke-width:1.0;" x1="332.5" x2="374.5" y1="1201.9609" y2="1201.9609"/><line style="stroke:#181818;stroke-width:1.0;" x1="374.5" x2="374.5" y1="1201.9609" y2="1214.9609"/><line style="stroke:#181818;stroke-width:1.0;" x1="333.5" x2="374.5" y1="1214.9609" y2="1214.9609"/><polygon fill="#181818" points="343.5,1210.9609,333.5,1214.9609,343.5,1218.9609,339.5,1214.9609" style="stroke:#181818;stroke-width:1.0;"/><text fill="#000000" font-family="sans-serif" font-size="13" lengthAdjust="spacing" textLength="267" x="339.5" y="1196.895">update isExcludedFromFee(account, true)</text><polygon fill="#181818" points="114.5,1240.0938,104.5,1244.0938,114.5,1248.0938,110.5,1244.0938" style="stroke:#181818;stroke-width:1.0;"/><line style="stroke:#181818;stroke-width:1.0;" x1="108.5" x2="331.5" y1="1244.0938" y2="1244.0938"/><text fill="#000000" font-family="sans-serif" font-size="13" lengthAdjust="spacing" textLength="186" x="120.5" y="1239.0278">emit ExcludedFromFee event</text><polygon fill="#181818" points="320.5,1269.2266,330.5,1273.2266,320.5,1277.2266,324.5,1273.2266" style="stroke:#181818;stroke-width:1.0;"/><line style="stroke:#181818;stroke-width:1.0;" x1="103.5" x2="326.5" y1="1273.2266" y2="1273.2266"/><text fill="#000000" font-family="sans-serif" font-size="13" lengthAdjust="spacing" textLength="140" x="110.5" y="1268.1606">includeInFee(account)</text><line style="stroke:#181818;stroke-width:1.0;" x1="332.5" x2="374.5" y1="1302.3594" y2="1302.3594"/><line style="stroke:#181818;stroke-width:1.0;" x1="374.5" x2="374.5" y1="1302.3594" y2="1315.3594"/><line style="stroke:#181818;stroke-width:1.0;" x1="333.5" x2="374.5" y1="1315.3594" y2="1315.3594"/><polygon fill="#181818" points="343.5,1311.3594,333.5,1315.3594,343.5,1319.3594,339.5,1315.3594" style="stroke:#181818;stroke-width:1.0;"/><text fill="#000000" font-family="sans-serif" font-size="13" lengthAdjust="spacing" textLength="271" x="339.5" y="1297.2935">update isExcludedFromFee(account, false)</text><polygon fill="#181818" points="114.5,1340.4922,104.5,1344.4922,114.5,1348.4922,110.5,1344.4922" style="stroke:#181818;stroke-width:1.0;"/><line style="stroke:#181818;stroke-width:1.0;" x1="108.5" x2="331.5" y1="1344.4922" y2="1344.4922"/><text fill="#000000" font-family="sans-serif" font-size="13" lengthAdjust="spacing" textLength="160" x="120.5" y="1339.4263">emit IncludedInFee event</text><rect fill="#EEEEEE" height="3" style="stroke:#EEEEEE;stroke-width:1.0;" width="832.5" x="0" y="1373.0586"/><line style="stroke:#000000;stroke-width:1.0;" x1="0" x2="832.5" y1="1373.0586" y2="1373.0586"/><line style="stroke:#000000;stroke-width:1.0;" x1="0" x2="832.5" y1="1376.0586" y2="1376.0586"/><rect fill="#EEEEEE" height="23.1328" style="stroke:#000000;stroke-width:2.0;" width="147" x="342.75" y="1362.4922"/><text fill="#000000" font-family="sans-serif" font-size="13" font-weight="bold" lengthAdjust="spacing" textLength="128" x="348.75" y="1378.5591">Mint/Burn Tokens</text><polygon fill="#181818" points="320.5,1412.7578,330.5,1416.7578,320.5,1420.7578,324.5,1416.7578" style="stroke:#181818;stroke-width:1.0;"/><line style="stroke:#181818;stroke-width:1.0;" x1="103.5" x2="326.5" y1="1416.7578" y2="1416.7578"/><text fill="#000000" font-family="sans-serif" font-size="13" lengthAdjust="spacing" textLength="110" x="110.5" y="1411.6919">mint(to, amount)</text><line style="stroke:#181818;stroke-width:1.0;" x1="332.5" x2="374.5" y1="1445.8906" y2="1445.8906"/><line style="stroke:#181818;stroke-width:1.0;" x1="374.5" x2="374.5" y1="1445.8906" y2="1458.8906"/><line style="stroke:#181818;stroke-width:1.0;" x1="333.5" x2="374.5" y1="1458.8906" y2="1458.8906"/><polygon fill="#181818" points="343.5,1454.8906,333.5,1458.8906,343.5,1462.8906,339.5,1458.8906" style="stroke:#181818;stroke-width:1.0;"/><text fill="#000000" font-family="sans-serif" font-size="13" lengthAdjust="spacing" textLength="76" x="339.5" y="1440.8247">mint tokens</text><polygon fill="#181818" points="114.5,1484.0234,104.5,1488.0234,114.5,1492.0234,110.5,1488.0234" style="stroke:#181818;stroke-width:1.0;"/><line style="stroke:#181818;stroke-width:1.0;" x1="108.5" x2="331.5" y1="1488.0234" y2="1488.0234"/><text fill="#000000" font-family="sans-serif" font-size="13" lengthAdjust="spacing" textLength="100" x="120.5" y="1482.9575">emit Mint event</text><polygon fill="#181818" points="320.5,1513.1563,330.5,1517.1563,320.5,1521.1563,324.5,1517.1563" style="stroke:#181818;stroke-width:1.0;"/><line style="stroke:#181818;stroke-width:1.0;" x1="103.5" x2="326.5" y1="1517.1563" y2="1517.1563"/><text fill="#000000" font-family="sans-serif" font-size="13" lengthAdjust="spacing" textLength="89" x="110.5" y="1512.0903">burn(amount)</text><line style="stroke:#181818;stroke-width:1.0;" x1="332.5" x2="374.5" y1="1546.2891" y2="1546.2891"/><line style="stroke:#181818;stroke-width:1.0;" x1="374.5" x2="374.5" y1="1546.2891" y2="1559.2891"/><line style="stroke:#181818;stroke-width:1.0;" x1="333.5" x2="374.5" y1="1559.2891" y2="1559.2891"/><polygon fill="#181818" points="343.5,1555.2891,333.5,1559.2891,343.5,1563.2891,339.5,1559.2891" style="stroke:#181818;stroke-width:1.0;"/><text fill="#000000" font-family="sans-serif" font-size="13" lengthAdjust="spacing" textLength="76" x="339.5" y="1541.2231">burn tokens</text><polygon fill="#181818" points="114.5,1584.4219,104.5,1588.4219,114.5,1592.4219,110.5,1588.4219" style="stroke:#181818;stroke-width:1.0;"/><line style="stroke:#181818;stroke-width:1.0;" x1="108.5" x2="331.5" y1="1588.4219" y2="1588.4219"/><text fill="#000000" font-family="sans-serif" font-size="13" lengthAdjust="spacing" textLength="103" x="120.5" y="1583.356">emit Burn event</text><!--SRC=[hLHDRvmm4BtpA-R8LaIRNYDjfQtII7keAYLRvUoOGR72sYjxA5L_VSSVi40WeHzSRF3CcpVl3HQIZ8Nl3cqcmlPRgtcVdOKb9TLPQ8BR_VuUX0jhbkrsSD2AbAZLBq7AQDZjif05LvzYx0seBWBpLjGrqcq1niSK4D_lDra8lQJqe0ZIQB9C1nm9mb3oQ8Ls5TTe5Jt37QAlwcaF42Z5v1QPkK9D1OYJQJHjCb4JFA0kEK4vm9-oRaeieRBc11LY1lnqXFhq0MO2oh1sE03IXju1I-qFeJXa7z0WZwZm8HvoowodRsuB7w_vsQpb1LSNr55EaEW6yAIer_2H9VH5y0VwZdGvLZYqiKBcEuxBNP2YW1d99_xAPvGlm6gOLcY987G9JwBs- -3EVku4N5DLF8UOsbfZurehVTngE_-pfNzhwvzP6pfaUuTPqJ3EAr5Q5Dn-RqaSxeiFV1jqDYWzCM92md91IyEM-xbwm4GlVk-6QdfZEAJZIB1SOylBgpbgpYLV2XDr-w08ErIbZ_54eYuThSTav3oTTEfvnEqIbJGFynmIohZubpXZsuCEQnor1M7IFFg_pQiYf9pzlH8NvH9sEKaeMB5ceEQ8v2IdO_hwLWzX1_rlH2h1SxR092bIXXe3nRugJTlFZTLmD2-etPnI9ux9oIpUGFuSAAJF5_T5bdf_ujhv0h0_UnCu40_0lm40]--></g></svg>