<svg xmlns="http://www.w3.org/2000/svg" xmlns:xlink="http://www.w3.org/1999/xlink" contentStyleType="text/css" height="337px" preserveAspectRatio="none" style="width:1403px;height:337px;background:#FFFFFF;" version="1.1" viewBox="0 0 1403 337" width="1403px" zoomAndPan="magnify"><defs/><g><!--cluster DAAR Token Use Case Diagram--><g id="cluster_DAAR Token Use Case Diagram"><rect fill="none" height="137.91" rx="2.5" ry="2.5" style="stroke:#181818;stroke-width:1.0;" width="1390" x="7" y="97.8"/><text fill="#000000" font-family="sans-serif" font-size="14" font-weight="bold" lengthAdjust="spacing" textLength="245" x="579.5" y="112.7951">DAAR Token Use Case Diagram</text></g><g id="cluster_##5"><rect fill="none" height="61.41" rx="2.5" ry="2.5" style="stroke:#181818;stroke-width:1.0;" width="243" x="31" y="145.55"/></g><g id="cluster_##9"><rect fill="none" height="70.91" rx="2.5" ry="2.5" style="stroke:#181818;stroke-width:1.0;" width="1075" x="298" y="140.8"/></g><g id="elem_UC2"><ellipse cx="220.9961" cy="176.2523" fill="#F1F1F1" rx="36.9961" ry="14.5423" style="stroke:#181818;stroke-width:0.5;"/><text fill="#000000" font-family="sans-serif" font-size="14" lengthAdjust="spacing" textLength="36" x="201.6301" y="179.5627">Send</text></g><g id="elem_UC3"><ellipse cx="97.9979" cy="176.2516" fill="#F1F1F1" rx="51.1079" ry="14.7016" style="stroke:#181818;stroke-width:0.5;"/><text fill="#000000" font-family="sans-serif" font-size="14" lengthAdjust="spacing" textLength="55" x="67.4979" y="179.9992">Receive</text></g><g id="elem_UC4"><ellipse cx="1306.9951" cy="176.2474" fill="#F1F1F1" rx="49.6151" ry="14.6874" style="stroke:#181818;stroke-width:0.5;"/><text fill="#000000" font-family="sans-serif" font-size="14" lengthAdjust="spacing" textLength="53" x="1277.4951" y="179.9949">Set Fee</text></g><g id="elem_UC5"><ellipse cx="1156.9966" cy="176.2453" fill="#F1F1F1" rx="65.0766" ry="15.4153" style="stroke:#181818;stroke-width:0.5;"/><text fill="#000000" font-family="sans-serif" font-size="14" lengthAdjust="spacing" textLength="79" x="1114.4966" y="179.9929">Set WalletD</text></g><g id="elem_UC8"><ellipse cx="984.9973" cy="176.2515" fill="#F1F1F1" rx="72.3073" ry="16.8615" style="stroke:#181818;stroke-width:0.5;"/><text fill="#000000" font-family="sans-serif" font-size="14" lengthAdjust="spacing" textLength="99" x="932.4973" y="179.999">Set Distributor</text></g><g id="elem_UC9"><ellipse cx="792.0032" cy="176.2486" fill="#F1F1F1" rx="85.2932" ry="19.4586" style="stroke:#181818;stroke-width:0.5;"/><text fill="#000000" font-family="sans-serif" font-size="14" lengthAdjust="spacing" textLength="131" x="726.5032" y="179.0953">Set APR Distributor</text></g><g id="elem_UC10"><ellipse cx="595.0012" cy="176.2522" fill="#F1F1F1" rx="76.5612" ry="17.7122" style="stroke:#181818;stroke-width:0.5;"/><text fill="#000000" font-family="sans-serif" font-size="14" lengthAdjust="spacing" textLength="110" x="537.0012" y="179.9998">Distribute DAAR</text></g><g id="elem_UC11"><ellipse cx="451.0014" cy="176.2536" fill="#F1F1F1" rx="31.9914" ry="14.5236" style="stroke:#181818;stroke-width:0.5;"/><text fill="#000000" font-family="sans-serif" font-size="14" lengthAdjust="spacing" textLength="29" x="436.5014" y="179.1003">Mint</text></g><g id="elem_UC12"><ellipse cx="349.0038" cy="176.2487" fill="#F1F1F1" rx="34.8338" ry="14.5287" style="stroke:#181818;stroke-width:0.5;"/><text fill="#000000" font-family="sans-serif" font-size="14" lengthAdjust="spacing" textLength="33" x="331.8371" y="179.3368">Burn</text></g><!--entity Owner--><g id="elem_Owner"><ellipse cx="595" cy="264.21" fill="#F1F1F1" rx="8" ry="8" style="stroke:#181818;stroke-width:0.5;"/><path d="M595,272.21 L595,299.21 M582,280.21 L608,280.21 M595,299.21 L582,314.21 M595,299.21 L608,314.21 " fill="none" style="stroke:#181818;stroke-width:0.5;"/><text fill="#000000" font-family="sans-serif" font-size="14" lengthAdjust="spacing" textLength="45" x="572.5" y="328.7051">Owner</text></g><!--entity User--><g id="elem_User"><ellipse cx="159" cy="14" fill="#F1F1F1" rx="8" ry="8" style="stroke:#181818;stroke-width:0.5;"/><path d="M159,22 L159,49 M146,30 L172,30 M159,49 L146,64 M159,49 L172,64 " fill="none" style="stroke:#181818;stroke-width:0.5;"/><text fill="#000000" font-family="sans-serif" font-size="14" lengthAdjust="spacing" textLength="32" x="143" y="78.4951">User</text></g><!--link User to UC2--><g id="link_User_UC2"><path d="M175.45,79.3 C188.22,106.21 202.687,136.6697 211.877,156.0297 " fill="none" id="User-to-UC2" style="stroke:#181818;stroke-width:1.0;"/><polygon fill="#181818" points="214.45,161.45,214.2041,151.6042,212.3059,156.9331,206.977,155.0348,214.45,161.45" style="stroke:#181818;stroke-width:1.0;"/></g><!--link User to UC3--><g id="link_User_UC3"><path d="M142.65,79.65 C130.16,106.4 116.1407,136.4245 107.1007,155.7645 " fill="none" id="User-to-UC3" style="stroke:#181818;stroke-width:1.0;"/><polygon fill="#181818" points="104.56,161.2,111.9947,154.7405,106.6772,156.6704,104.7474,151.3529,104.56,161.2" style="stroke:#181818;stroke-width:1.0;"/></g><!--reverse link UC2 to Owner--><g id="link_UC2_Owner"><path d="M236.0189,194.8821 C249.7689,210.3321 270.81,230.98 298,243.71 C392.66,288.05 520.69,293.11 572.17,293.2 " fill="none" id="UC2-backto-Owner" style="stroke:#181818;stroke-width:1.0;"/><polygon fill="#181818" points="232.03,190.4,235.0253,199.7823,235.3541,194.135,241.0014,194.4638,232.03,190.4" style="stroke:#181818;stroke-width:1.0;"/></g><!--reverse link UC3 to Owner--><g id="link_UC3_Owner"><path d="M111.3193,195.6803 C123.2893,211.3703 141.57,231.73 167,243.71 C240.07,278.15 494.53,289.47 572.27,292.16 " fill="none" id="UC3-backto-Owner" style="stroke:#181818;stroke-width:1.0;"/><polygon fill="#181818" points="107.68,190.91,109.9587,200.4916,110.7127,194.8852,116.3191,195.6392,107.68,190.91" style="stroke:#181818;stroke-width:1.0;"/></g><!--reverse link UC4 to Owner--><g id="link_UC4_Owner"><path d="M1294.2565,195.9437 C1282.8065,211.7937 1265.18,232.2 1240,243.71 C1125.73,295.94 718.48,294.42 617.69,293.2 " fill="none" id="UC4-backto-Owner" style="stroke:#181818;stroke-width:1.0;"/><polygon fill="#181818" points="1297.77,191.08,1289.2573,196.0332,1294.8421,195.1331,1295.7422,200.7178,1297.77,191.08" style="stroke:#181818;stroke-width:1.0;"/></g><!--reverse link UC5 to Owner--><g id="link_UC5_Owner"><path d="M1140.0321,196.1838 C1125.1321,211.9738 1103.12,232.1 1075,243.71 C990.51,278.6 701.21,289.72 617.72,292.25 " fill="none" id="UC5-backto-Owner" style="stroke:#181818;stroke-width:1.0;"/><polygon fill="#181818" points="1144.15,191.82,1135.064,195.6205,1140.7184,195.4565,1140.8824,201.111,1144.15,191.82" style="stroke:#181818;stroke-width:1.0;"/></g><!--reverse link UC8 to Owner--><g id="link_UC8_Owner"><path d="M964.4947,196.9517 C947.5547,212.4617 923.81,231.56 895,243.71 C797.75,284.74 669.35,291.66 617.82,292.72 " fill="none" id="UC8-backto-Owner" style="stroke:#181818;stroke-width:1.0;"/><polygon fill="#181818" points="968.92,192.9,959.5809,196.0274,965.2322,196.2765,964.9832,201.9278,968.92,192.9" style="stroke:#181818;stroke-width:1.0;"/></g><!--reverse link UC9 to Owner--><g id="link_UC9_Owner"><path d="M760.7552,198.4794 C740.1852,212.2594 715.66,228.18 689,243.71 C665.13,257.62 636.96,272.1 617.72,281.71 " fill="none" id="UC9-backto-Owner" style="stroke:#181818;stroke-width:1.0;"/><polygon fill="#181818" points="765.74,195.14,756.0365,196.8258,761.586,197.9228,760.489,203.4723,765.74,195.14" style="stroke:#181818;stroke-width:1.0;"/></g><!--reverse link UC10 to Owner--><g id="link_UC10_Owner"><path d="M595,200.31 C595,216.39 595,235.03 595,255.65 " fill="none" id="UC10-backto-Owner" style="stroke:#181818;stroke-width:1.0;"/><polygon fill="#181818" points="595,194.31,591,203.31,595,199.31,599,203.31,595,194.31" style="stroke:#181818;stroke-width:1.0;"/></g><!--reverse link UC11 to Owner--><g id="link_UC11_Owner"><path d="M461.6758,195.7696 C470.4158,210.2796 482.84,228.3 501,243.71 C522.48,261.95 551.86,275.94 572.03,284.25 " fill="none" id="UC11-backto-Owner" style="stroke:#181818;stroke-width:1.0;"/><polygon fill="#181818" points="458.58,190.63,459.7973,200.4033,461.1599,194.913,466.6502,196.2756,458.58,190.63" style="stroke:#181818;stroke-width:1.0;"/></g><!--reverse link UC12 to Owner--><g id="link_UC12_Owner"><path d="M359.2622,196.1149 C368.0522,211.3249 381.3,230.34 402,243.71 C456.17,278.7 533.84,288.79 572.03,291.7 " fill="none" id="UC12-backto-Owner" style="stroke:#181818;stroke-width:1.0;"/><polygon fill="#181818" points="356.26,190.92,357.3,200.7138,358.7618,195.2491,364.2265,196.7109,356.26,190.92" style="stroke:#181818;stroke-width:1.0;"/></g><!--SRC=[RP712i8m38RlVOgm-y1j2deHfiMRADFXkMv1YhEJjjE3-EvsfLFQUIdvytq4ah9Ajn9sJu6IC5kNofH4OgMPk3G84Stp0exj5KNFOCtCGpcxI7QBu4K0VcwV03g5LIz51nHr14n1kKvzKc25_84EPWQ-lK7ZIHesEFZJCJonfa5DdJ0R2vGhBVcvCoiwQJwMydtnHrpuubSmPp2dSL8oyQqj5tf0YOzMdHG3IktgRqBwiqDSjqyHB-szWaP6YFqbYBkxC_oS1NaQv5cGvq5U1Dai53IIi95-0000]--></g></svg>