
<svg xmlns="http://www.w3.org/2000/svg" xmlns:xlink="http://www.w3.org/1999/xlink" contentStyleType="text/css" height="1889px" preserveAspectRatio="none" style="width:898px;height:1889px;background:#FFFFFF;" version="1.1" viewBox="0 0 898 1889" width="898px" zoomAndPan="magnify"><defs/><g><rect fill="none" height="148.4688" style="stroke:#000000;stroke-width:1.5;" width="788" x="20" y="284.9609"/><rect fill="none" height="252.6719" style="stroke:#000000;stroke-width:1.5;" width="871" x="10" y="561.8281"/><rect fill="none" height="148.4688" style="stroke:#000000;stroke-width:1.5;" width="788" x="20" y="585.9609"/><rect fill="none" height="132.3359" style="stroke:#000000;stroke-width:1.5;" width="386" x="68" y="900.7656"/><line style="stroke:#181818;stroke-width:0.5;stroke-dasharray:5.0,5.0;" x1="49" x2="49" y1="81.2969" y2="1808.8906"/><line style="stroke:#181818;stroke-width:0.5;stroke-dasharray:5.0,5.0;" x1="103" x2="103" y1="81.2969" y2="1808.8906"/><line style="stroke:#181818;stroke-width:0.5;stroke-dasharray:5.0,5.0;" x1="330.5" x2="330.5" y1="81.2969" y2="1808.8906"/><line style="stroke:#181818;stroke-width:0.5;stroke-dasharray:5.0,5.0;" x1="622" x2="622" y1="81.2969" y2="1808.8906"/><line style="stroke:#181818;stroke-width:0.5;stroke-dasharray:5.0,5.0;" x1="733" x2="733" y1="81.2969" y2="1808.8906"/><line style="stroke:#181818;stroke-width:0.5;stroke-dasharray:5.0,5.0;" x1="839" x2="839" y1="81.2969" y2="1808.8906"/><text fill="#000000" font-family="sans-serif" font-size="14" lengthAdjust="spacing" textLength="32" x="30" y="77.9951">User</text><ellipse cx="49" cy="13.5" fill="#E2E2F0" rx="8" ry="8" style="stroke:#181818;stroke-width:0.5;"/><path d="M49,21.5 L49,48.5 M36,29.5 L62,29.5 M49,48.5 L36,63.5 M49,48.5 L62,63.5 " fill="none" style="stroke:#181818;stroke-width:0.5;"/><text fill="#000000" font-family="sans-serif" font-size="14" lengthAdjust="spacing" textLength="32" x="30" y="1820.8857">User</text><ellipse cx="49" cy="1832.6875" fill="#E2E2F0" rx="8" ry="8" style="stroke:#181818;stroke-width:0.5;"/><path d="M49,1840.6875 L49,1867.6875 M36,1848.6875 L62,1848.6875 M49,1867.6875 L36,1882.6875 M49,1867.6875 L62,1882.6875 " fill="none" style="stroke:#181818;stroke-width:0.5;"/><text fill="#000000" font-family="sans-serif" font-size="14" lengthAdjust="spacing" textLength="45" x="78" y="77.9951">Owner</text><ellipse cx="103.5" cy="13.5" fill="#E2E2F0" rx="8" ry="8" style="stroke:#181818;stroke-width:0.5;"/><path d="M103.5,21.5 L103.5,48.5 M90.5,29.5 L116.5,29.5 M103.5,48.5 L90.5,63.5 M103.5,48.5 L116.5,63.5 " fill="none" style="stroke:#181818;stroke-width:0.5;"/><text fill="#000000" font-family="sans-serif" font-size="14" lengthAdjust="spacing" textLength="45" x="78" y="1820.8857">Owner</text><ellipse cx="103.5" cy="1832.6875" fill="#E2E2F0" rx="8" ry="8" style="stroke:#181818;stroke-width:0.5;"/><path d="M103.5,1840.6875 L103.5,1867.6875 M90.5,1848.6875 L116.5,1848.6875 M103.5,1867.6875 L90.5,1882.6875 M103.5,1867.6875 L116.5,1882.6875 " fill="none" style="stroke:#181818;stroke-width:0.5;"/><rect fill="#E2E2F0" height="30.2969" rx="2.5" ry="2.5" style="stroke:#181818;stroke-width:0.5;" width="77" x="292.5" y="50"/><text fill="#000000" font-family="sans-serif" font-size="14" lengthAdjust="spacing" textLength="63" x="299.5" y="69.9951">DAARION</text><rect fill="#E2E2F0" height="30.2969" rx="2.5" ry="2.5" style="stroke:#181818;stroke-width:0.5;" width="77" x="292.5" y="1807.8906"/><text fill="#000000" font-family="sans-serif" font-size="14" lengthAdjust="spacing" textLength="63" x="299.5" y="1827.8857">DAARION</text><rect fill="#E2E2F0" height="30.2969" rx="2.5" ry="2.5" style="stroke:#181818;stroke-width:0.5;" width="74" x="585" y="50"/><text fill="#000000" font-family="sans-serif" font-size="14" lengthAdjust="spacing" textLength="60" x="592" y="69.9951">recipient</text><rect fill="#E2E2F0" height="30.2969" rx="2.5" ry="2.5" style="stroke:#181818;stroke-width:0.5;" width="74" x="585" y="1807.8906"/><text fill="#000000" font-family="sans-serif" font-size="14" lengthAdjust="spacing" textLength="60" x="592" y="1827.8857">recipient</text><rect fill="#E2E2F0" height="30.2969" rx="2.5" ry="2.5" style="stroke:#181818;stroke-width:0.5;" width="129" x="669" y="50"/><text fill="#000000" font-family="sans-serif" font-size="14" lengthAdjust="spacing" textLength="115" x="676" y="69.9951">BURN_ADDRESS</text><rect fill="#E2E2F0" height="30.2969" rx="2.5" ry="2.5" style="stroke:#181818;stroke-width:0.5;" width="129" x="669" y="1807.8906"/><text fill="#000000" font-family="sans-serif" font-size="14" lengthAdjust="spacing" textLength="115" x="676" y="1827.8857">BURN_ADDRESS</text><rect fill="#E2E2F0" height="30.2969" rx="2.5" ry="2.5" style="stroke:#181818;stroke-width:0.5;" width="63" x="808" y="50"/><text fill="#000000" font-family="sans-serif" font-size="14" lengthAdjust="spacing" textLength="49" x="815" y="69.9951">sender</text><rect fill="#E2E2F0" height="30.2969" rx="2.5" ry="2.5" style="stroke:#181818;stroke-width:0.5;" width="63" x="808" y="1807.8906"/><text fill="#000000" font-family="sans-serif" font-size="14" lengthAdjust="spacing" textLength="49" x="815" y="1827.8857">sender</text><rect fill="#EEEEEE" height="3" style="stroke:#EEEEEE;stroke-width:1.0;" width="891" x="0" y="111.8633"/><line style="stroke:#000000;stroke-width:1.0;" x1="0" x2="891" y1="111.8633" y2="111.8633"/><line style="stroke:#000000;stroke-width:1.0;" x1="0" x2="891" y1="114.8633" y2="114.8633"/><rect fill="#EEEEEE" height="23.1328" style="stroke:#000000;stroke-width:2.0;" width="108" x="391.5" y="101.2969"/><text fill="#000000" font-family="sans-serif" font-size="13" font-weight="bold" lengthAdjust="spacing" textLength="89" x="397.5" y="117.3638">Initialization</text><polygon fill="#181818" points="319,151.5625,329,155.5625,319,159.5625,323,155.5625" style="stroke:#181818;stroke-width:1.0;"/><line style="stroke:#181818;stroke-width:1.0;" x1="103.5" x2="325" y1="155.5625" y2="155.5625"/><text fill="#000000" font-family="sans-serif" font-size="13" lengthAdjust="spacing" textLength="151" x="110.5" y="150.4966">initialize(wallet1, owner)</text><line style="stroke:#181818;stroke-width:1.0;" x1="331" x2="373" y1="184.6953" y2="184.6953"/><line style="stroke:#181818;stroke-width:1.0;" x1="373" x2="373" y1="184.6953" y2="197.6953"/><line style="stroke:#181818;stroke-width:1.0;" x1="332" x2="373" y1="197.6953" y2="197.6953"/><polygon fill="#181818" points="342,193.6953,332,197.6953,342,201.6953,338,197.6953" style="stroke:#181818;stroke-width:1.0;"/><text fill="#000000" font-family="sans-serif" font-size="13" lengthAdjust="spacing" textLength="145" x="338" y="179.6294">Initialize contract state</text><rect fill="#EEEEEE" height="3" style="stroke:#EEEEEE;stroke-width:1.0;" width="891" x="0" y="226.2617"/><line style="stroke:#000000;stroke-width:1.0;" x1="0" x2="891" y1="226.2617" y2="226.2617"/><line style="stroke:#000000;stroke-width:1.0;" x1="0" x2="891" y1="229.2617" y2="229.2617"/><rect fill="#EEEEEE" height="23.1328" style="stroke:#000000;stroke-width:2.0;" width="146" x="372.5" y="215.6953"/><text fill="#000000" font-family="sans-serif" font-size="13" font-weight="bold" lengthAdjust="spacing" textLength="127" x="378.5" y="231.7622">Transfer with Tax</text><polygon fill="#181818" points="319,265.9609,329,269.9609,319,273.9609,323,269.9609" style="stroke:#181818;stroke-width:1.0;"/><line style="stroke:#181818;stroke-width:1.0;" x1="49" x2="325" y1="269.9609" y2="269.9609"/><text fill="#000000" font-family="sans-serif" font-size="13" lengthAdjust="spacing" textLength="173" x="56" y="264.895">transfer(recipient, amount)</text><path d="M20,284.9609 L84,284.9609 L84,292.0938 L74,302.0938 L20,302.0938 L20,284.9609 " fill="#EEEEEE" style="stroke:#000000;stroke-width:1.5;"/><rect fill="none" height="148.4688" style="stroke:#000000;stroke-width:1.5;" width="788" x="20" y="284.9609"/><text fill="#000000" font-family="sans-serif" font-size="13" font-weight="bold" lengthAdjust="spacing" textLength="19" x="35" y="298.0278">alt</text><text fill="#000000" font-family="sans-serif" font-size="11" font-weight="bold" lengthAdjust="spacing" textLength="189" x="99" y="297.1714">[Sender is excluded from tax]</text><polygon fill="#181818" points="610,319.2266,620,323.2266,610,327.2266,614,323.2266" style="stroke:#181818;stroke-width:1.0;"/><line style="stroke:#181818;stroke-width:1.0;" x1="331" x2="616" y1="323.2266" y2="323.2266"/><text fill="#000000" font-family="sans-serif" font-size="13" lengthAdjust="spacing" textLength="104" x="338" y="318.1606">transfer amount</text><line style="stroke:#000000;stroke-width:1.0;stroke-dasharray:2.0,2.0;" x1="20" x2="808" y1="332.2266" y2="332.2266"/><text fill="#000000" font-family="sans-serif" font-size="11" font-weight="bold" lengthAdjust="spacing" textLength="214" x="25" y="342.437">[Sender is not excluded from tax]</text><polygon fill="#181818" points="721.5,363.1641,731.5,367.1641,721.5,371.1641,725.5,367.1641" style="stroke:#181818;stroke-width:1.0;"/><line style="stroke:#181818;stroke-width:1.0;" x1="331" x2="727.5" y1="367.1641" y2="367.1641"/><text fill="#000000" font-family="sans-serif" font-size="13" lengthAdjust="spacing" textLength="311" x="338" y="362.0981">transfer taxAmount (amount * salesTax / 10000)</text><polygon fill="#181818" points="610,392.2969,620,396.2969,610,400.2969,614,396.2969" style="stroke:#181818;stroke-width:1.0;"/><line style="stroke:#181818;stroke-width:1.0;" x1="331" x2="616" y1="396.2969" y2="396.2969"/><text fill="#000000" font-family="sans-serif" font-size="13" lengthAdjust="spacing" textLength="188" x="338" y="391.231">transfer amount - taxAmount</text><polygon fill="#181818" points="60,421.4297,50,425.4297,60,429.4297,56,425.4297" style="stroke:#181818;stroke-width:1.0;"/><line style="stroke:#181818;stroke-width:1.0;" x1="54" x2="330" y1="425.4297" y2="425.4297"/><text fill="#000000" font-family="sans-serif" font-size="13" lengthAdjust="spacing" textLength="174" x="66" y="420.3638">emit TransferWithTax event</text><rect fill="#EEEEEE" height="3" style="stroke:#EEEEEE;stroke-width:1.0;" width="891" x="0" y="460.9961"/><line style="stroke:#000000;stroke-width:1.0;" x1="0" x2="891" y1="460.9961" y2="460.9961"/><line style="stroke:#000000;stroke-width:1.0;" x1="0" x2="891" y1="463.9961" y2="463.9961"/><rect fill="#EEEEEE" height="23.1328" style="stroke:#000000;stroke-width:2.0;" width="186" x="352.5" y="450.4297"/><text fill="#000000" font-family="sans-serif" font-size="13" font-weight="bold" lengthAdjust="spacing" textLength="167" x="358.5" y="466.4966">Transfer from with Tax</text><polygon fill="#181818" points="319,500.6953,329,504.6953,319,508.6953,323,504.6953" style="stroke:#181818;stroke-width:1.0;"/><line style="stroke:#181818;stroke-width:1.0;" x1="49" x2="325" y1="504.6953" y2="504.6953"/><text fill="#000000" font-family="sans-serif" font-size="13" lengthAdjust="spacing" textLength="258" x="56" y="499.6294">transferFrom(sender, recipient, amount)</text><line style="stroke:#181818;stroke-width:1.0;" x1="331" x2="373" y1="533.8281" y2="533.8281"/><line style="stroke:#181818;stroke-width:1.0;" x1="373" x2="373" y1="533.8281" y2="546.8281"/><line style="stroke:#181818;stroke-width:1.0;" x1="332" x2="373" y1="546.8281" y2="546.8281"/><polygon fill="#181818" points="342,542.8281,332,546.8281,342,550.8281,338,546.8281" style="stroke:#181818;stroke-width:1.0;"/><text fill="#000000" font-family="sans-serif" font-size="13" lengthAdjust="spacing" textLength="185" x="338" y="528.7622">check allowance and balance</text><path d="M10,561.8281 L74,561.8281 L74,568.9609 L64,578.9609 L10,578.9609 L10,561.8281 " fill="#EEEEEE" style="stroke:#000000;stroke-width:1.5;"/><rect fill="none" height="252.6719" style="stroke:#000000;stroke-width:1.5;" width="871" x="10" y="561.8281"/><text fill="#000000" font-family="sans-serif" font-size="13" font-weight="bold" lengthAdjust="spacing" textLength="19" x="25" y="574.895">alt</text><text fill="#000000" font-family="sans-serif" font-size="11" font-weight="bold" lengthAdjust="spacing" textLength="224" x="89" y="574.0386">[Allowance and balance sufficient]</text><path d="M20,585.9609 L84,585.9609 L84,593.0938 L74,603.0938 L20,603.0938 L20,585.9609 " fill="#EEEEEE" style="stroke:#000000;stroke-width:1.5;"/><rect fill="none" height="148.4688" style="stroke:#000000;stroke-width:1.5;" width="788" x="20" y="585.9609"/><text fill="#000000" font-family="sans-serif" font-size="13" font-weight="bold" lengthAdjust="spacing" textLength="19" x="35" y="599.0278">alt</text><text fill="#000000" font-family="sans-serif" font-size="11" font-weight="bold" lengthAdjust="spacing" textLength="189" x="99" y="598.1714">[Sender is excluded from tax]</text><polygon fill="#181818" points="610,620.2266,620,624.2266,610,628.2266,614,624.2266" style="stroke:#181818;stroke-width:1.0;"/><line style="stroke:#181818;stroke-width:1.0;" x1="331" x2="616" y1="624.2266" y2="624.2266"/><text fill="#000000" font-family="sans-serif" font-size="13" lengthAdjust="spacing" textLength="104" x="338" y="619.1606">transfer amount</text><line style="stroke:#000000;stroke-width:1.0;stroke-dasharray:2.0,2.0;" x1="20" x2="808" y1="633.2266" y2="633.2266"/><text fill="#000000" font-family="sans-serif" font-size="11" font-weight="bold" lengthAdjust="spacing" textLength="214" x="25" y="643.437">[Sender is not excluded from tax]</text><polygon fill="#181818" points="721.5,664.1641,731.5,668.1641,721.5,672.1641,725.5,668.1641" style="stroke:#181818;stroke-width:1.0;"/><line style="stroke:#181818;stroke-width:1.0;" x1="331" x2="727.5" y1="668.1641" y2="668.1641"/><text fill="#000000" font-family="sans-serif" font-size="13" lengthAdjust="spacing" textLength="311" x="338" y="663.0981">transfer taxAmount (amount * salesTax / 10000)</text><polygon fill="#181818" points="610,693.2969,620,697.2969,610,701.2969,614,697.2969" style="stroke:#181818;stroke-width:1.0;"/><line style="stroke:#181818;stroke-width:1.0;" x1="331" x2="616" y1="697.2969" y2="697.2969"/><text fill="#000000" font-family="sans-serif" font-size="13" lengthAdjust="spacing" textLength="188" x="338" y="692.231">transfer amount - taxAmount</text><polygon fill="#181818" points="60,722.4297,50,726.4297,60,730.4297,56,726.4297" style="stroke:#181818;stroke-width:1.0;"/><line style="stroke:#181818;stroke-width:1.0;" x1="54" x2="330" y1="726.4297" y2="726.4297"/><text fill="#000000" font-family="sans-serif" font-size="13" lengthAdjust="spacing" textLength="174" x="66" y="721.3638">emit TransferWithTax event</text><polygon fill="#181818" points="827.5,758.5625,837.5,762.5625,827.5,766.5625,831.5,762.5625" style="stroke:#181818;stroke-width:1.0;"/><line style="stroke:#181818;stroke-width:1.0;" x1="331" x2="833.5" y1="762.5625" y2="762.5625"/><text fill="#000000" font-family="sans-serif" font-size="13" lengthAdjust="spacing" textLength="125" x="338" y="757.4966">decrease allowance</text><line style="stroke:#000000;stroke-width:1.0;stroke-dasharray:2.0,2.0;" x1="10" x2="881" y1="771.5625" y2="771.5625"/><text fill="#000000" font-family="sans-serif" font-size="11" font-weight="bold" lengthAdjust="spacing" textLength="225" x="15" y="781.7729">[Allowance or balance insufficient]</text><polygon fill="#181818" points="60,802.5,50,806.5,60,810.5,56,806.5" style="stroke:#181818;stroke-width:1.0;"/><line style="stroke:#181818;stroke-width:1.0;" x1="54" x2="330" y1="806.5" y2="806.5"/><text fill="#000000" font-family="sans-serif" font-size="13" lengthAdjust="spacing" textLength="114" x="66" y="801.4341">revert transaction</text><rect fill="#EEEEEE" height="3" style="stroke:#EEEEEE;stroke-width:1.0;" width="891" x="0" y="842.0664"/><line style="stroke:#000000;stroke-width:1.0;" x1="0" x2="891" y1="842.0664" y2="842.0664"/><line style="stroke:#000000;stroke-width:1.0;" x1="0" x2="891" y1="845.0664" y2="845.0664"/><rect fill="#EEEEEE" height="23.1328" style="stroke:#000000;stroke-width:2.0;" width="117" x="387" y="831.5"/><text fill="#000000" font-family="sans-serif" font-size="13" font-weight="bold" lengthAdjust="spacing" textLength="98" x="393" y="847.5669">Set Sales Tax</text><polygon fill="#181818" points="319,881.7656,329,885.7656,319,889.7656,323,885.7656" style="stroke:#181818;stroke-width:1.0;"/><line style="stroke:#181818;stroke-width:1.0;" x1="103.5" x2="325" y1="885.7656" y2="885.7656"/><text fill="#000000" font-family="sans-serif" font-size="13" lengthAdjust="spacing" textLength="107" x="110.5" y="880.6997">setSalesTax(tax)</text><path d="M68,900.7656 L132,900.7656 L132,907.8984 L122,917.8984 L68,917.8984 L68,900.7656 " fill="#EEEEEE" style="stroke:#000000;stroke-width:1.5;"/><rect fill="none" height="132.3359" style="stroke:#000000;stroke-width:1.5;" width="386" x="68" y="900.7656"/><text fill="#000000" font-family="sans-serif" font-size="13" font-weight="bold" lengthAdjust="spacing" textLength="19" x="83" y="913.8325">alt</text><text fill="#000000" font-family="sans-serif" font-size="11" font-weight="bold" lengthAdjust="spacing" textLength="78" x="147" y="912.9761">[Tax &lt;= 5%]</text><line style="stroke:#181818;stroke-width:1.0;" x1="331" x2="373" y1="939.0313" y2="939.0313"/><line style="stroke:#181818;stroke-width:1.0;" x1="373" x2="373" y1="939.0313" y2="952.0313"/><line style="stroke:#181818;stroke-width:1.0;" x1="332" x2="373" y1="952.0313" y2="952.0313"/><polygon fill="#181818" points="342,948.0313,332,952.0313,342,956.0313,338,952.0313" style="stroke:#181818;stroke-width:1.0;"/><text fill="#000000" font-family="sans-serif" font-size="13" lengthAdjust="spacing" textLength="104" x="338" y="933.9653">update salesTax</text><polygon fill="#181818" points="114.5,977.1641,104.5,981.1641,114.5,985.1641,110.5,981.1641" style="stroke:#181818;stroke-width:1.0;"/><line style="stroke:#181818;stroke-width:1.0;" x1="108.5" x2="330" y1="981.1641" y2="981.1641"/><text fill="#000000" font-family="sans-serif" font-size="13" lengthAdjust="spacing" textLength="152" x="120.5" y="976.0981">emit SalesTaxSet event</text><line style="stroke:#000000;stroke-width:1.0;stroke-dasharray:2.0,2.0;" x1="68" x2="454" y1="990.1641" y2="990.1641"/><text fill="#000000" font-family="sans-serif" font-size="11" font-weight="bold" lengthAdjust="spacing" textLength="69" x="73" y="1000.3745">[Tax &gt; 5%]</text><polygon fill="#181818" points="114.5,1021.1016,104.5,1025.1016,114.5,1029.1016,110.5,1025.1016" style="stroke:#181818;stroke-width:1.0;"/><line style="stroke:#181818;stroke-width:1.0;" x1="108.5" x2="330" y1="1025.1016" y2="1025.1016"/><text fill="#000000" font-family="sans-serif" font-size="13" lengthAdjust="spacing" textLength="114" x="120.5" y="1020.0356">revert transaction</text><rect fill="#EEEEEE" height="3" style="stroke:#EEEEEE;stroke-width:1.0;" width="891" x="0" y="1060.668"/><line style="stroke:#000000;stroke-width:1.0;" x1="0" x2="891" y1="1060.668" y2="1060.668"/><line style="stroke:#000000;stroke-width:1.0;" x1="0" x2="891" y1="1063.668" y2="1063.668"/><rect fill="#EEEEEE" height="23.1328" style="stroke:#000000;stroke-width:2.0;" width="103" x="394" y="1050.1016"/><text fill="#000000" font-family="sans-serif" font-size="13" font-weight="bold" lengthAdjust="spacing" textLength="84" x="400" y="1066.1685">Set Wallet1</text><polygon fill="#181818" points="319,1100.3672,329,1104.3672,319,1108.3672,323,1104.3672" style="stroke:#181818;stroke-width:1.0;"/><line style="stroke:#181818;stroke-width:1.0;" x1="103.5" x2="325" y1="1104.3672" y2="1104.3672"/><text fill="#000000" font-family="sans-serif" font-size="13" lengthAdjust="spacing" textLength="120" x="110.5" y="1099.3013">setWallet1(wallet1)</text><line style="stroke:#181818;stroke-width:1.0;" x1="331" x2="373" y1="1133.5" y2="1133.5"/><line style="stroke:#181818;stroke-width:1.0;" x1="373" x2="373" y1="1133.5" y2="1146.5"/><line style="stroke:#181818;stroke-width:1.0;" x1="332" x2="373" y1="1146.5" y2="1146.5"/><polygon fill="#181818" points="342,1142.5,332,1146.5,342,1150.5,338,1146.5" style="stroke:#181818;stroke-width:1.0;"/><text fill="#000000" font-family="sans-serif" font-size="13" lengthAdjust="spacing" textLength="93" x="338" y="1128.4341">update wallet1</text><polygon fill="#181818" points="114.5,1171.6328,104.5,1175.6328,114.5,1179.6328,110.5,1175.6328" style="stroke:#181818;stroke-width:1.0;"/><line style="stroke:#181818;stroke-width:1.0;" x1="108.5" x2="330" y1="1175.6328" y2="1175.6328"/><text fill="#000000" font-family="sans-serif" font-size="13" lengthAdjust="spacing" textLength="141" x="120.5" y="1170.5669">emit Wallet1Set event</text><rect fill="#EEEEEE" height="3" style="stroke:#EEEEEE;stroke-width:1.0;" width="891" x="0" y="1204.1992"/><line style="stroke:#000000;stroke-width:1.0;" x1="0" x2="891" y1="1204.1992" y2="1204.1992"/><line style="stroke:#000000;stroke-width:1.0;" x1="0" x2="891" y1="1207.1992" y2="1207.1992"/><rect fill="#EEEEEE" height="23.1328" style="stroke:#000000;stroke-width:2.0;" width="204" x="343.5" y="1193.6328"/><text fill="#000000" font-family="sans-serif" font-size="13" font-weight="bold" lengthAdjust="spacing" textLength="185" x="349.5" y="1209.6997">Exclude/Include from Tax</text><polygon fill="#181818" points="319,1243.8984,329,1247.8984,319,1251.8984,323,1247.8984" style="stroke:#181818;stroke-width:1.0;"/><line style="stroke:#181818;stroke-width:1.0;" x1="103.5" x2="325" y1="1247.8984" y2="1247.8984"/><text fill="#000000" font-family="sans-serif" font-size="13" lengthAdjust="spacing" textLength="165" x="110.5" y="1242.8325">excludeFromTax(account)</text><line style="stroke:#181818;stroke-width:1.0;" x1="331" x2="373" y1="1277.0313" y2="1277.0313"/><line style="stroke:#181818;stroke-width:1.0;" x1="373" x2="373" y1="1277.0313" y2="1290.0313"/><line style="stroke:#181818;stroke-width:1.0;" x1="332" x2="373" y1="1290.0313" y2="1290.0313"/><polygon fill="#181818" points="342,1286.0313,332,1290.0313,342,1294.0313,338,1290.0313" style="stroke:#181818;stroke-width:1.0;"/><text fill="#000000" font-family="sans-serif" font-size="13" lengthAdjust="spacing" textLength="273" x="338" y="1271.9653">update _isExcludedFromTax(account, true)</text><polygon fill="#181818" points="114.5,1315.1641,104.5,1319.1641,114.5,1323.1641,110.5,1319.1641" style="stroke:#181818;stroke-width:1.0;"/><line style="stroke:#181818;stroke-width:1.0;" x1="108.5" x2="330" y1="1319.1641" y2="1319.1641"/><text fill="#000000" font-family="sans-serif" font-size="13" lengthAdjust="spacing" textLength="185" x="120.5" y="1314.0981">emit ExcludedFromTax event</text><polygon fill="#181818" points="319,1344.2969,329,1348.2969,319,1352.2969,323,1348.2969" style="stroke:#181818;stroke-width:1.0;"/><line style="stroke:#181818;stroke-width:1.0;" x1="103.5" x2="325" y1="1348.2969" y2="1348.2969"/><text fill="#000000" font-family="sans-serif" font-size="13" lengthAdjust="spacing" textLength="139" x="110.5" y="1343.231">includeInTax(account)</text><line style="stroke:#181818;stroke-width:1.0;" x1="331" x2="373" y1="1377.4297" y2="1377.4297"/><line style="stroke:#181818;stroke-width:1.0;" x1="373" x2="373" y1="1377.4297" y2="1390.4297"/><line style="stroke:#181818;stroke-width:1.0;" x1="332" x2="373" y1="1390.4297" y2="1390.4297"/><polygon fill="#181818" points="342,1386.4297,332,1390.4297,342,1394.4297,338,1390.4297" style="stroke:#181818;stroke-width:1.0;"/><text fill="#000000" font-family="sans-serif" font-size="13" lengthAdjust="spacing" textLength="277" x="338" y="1372.3638">update _isExcludedFromTax(account, false)</text><polygon fill="#181818" points="114.5,1415.5625,104.5,1419.5625,114.5,1423.5625,110.5,1419.5625" style="stroke:#181818;stroke-width:1.0;"/><line style="stroke:#181818;stroke-width:1.0;" x1="108.5" x2="330" y1="1419.5625" y2="1419.5625"/><text fill="#000000" font-family="sans-serif" font-size="13" lengthAdjust="spacing" textLength="159" x="120.5" y="1414.4966">emit IncludedInTax event</text><rect fill="#EEEEEE" height="3" style="stroke:#EEEEEE;stroke-width:1.0;" width="891" x="0" y="1448.1289"/><line style="stroke:#000000;stroke-width:1.0;" x1="0" x2="891" y1="1448.1289" y2="1448.1289"/><line style="stroke:#000000;stroke-width:1.0;" x1="0" x2="891" y1="1451.1289" y2="1451.1289"/><rect fill="#EEEEEE" height="23.1328" style="stroke:#000000;stroke-width:2.0;" width="147" x="372" y="1437.5625"/><text fill="#000000" font-family="sans-serif" font-size="13" font-weight="bold" lengthAdjust="spacing" textLength="128" x="378" y="1453.6294">Mint/Burn Tokens</text><polygon fill="#181818" points="319,1487.8281,329,1491.8281,319,1495.8281,323,1491.8281" style="stroke:#181818;stroke-width:1.0;"/><line style="stroke:#181818;stroke-width:1.0;" x1="103.5" x2="325" y1="1491.8281" y2="1491.8281"/><text fill="#000000" font-family="sans-serif" font-size="13" lengthAdjust="spacing" textLength="110" x="110.5" y="1486.7622">mint(to, amount)</text><line style="stroke:#181818;stroke-width:1.0;" x1="331" x2="373" y1="1520.9609" y2="1520.9609"/><line style="stroke:#181818;stroke-width:1.0;" x1="373" x2="373" y1="1520.9609" y2="1533.9609"/><line style="stroke:#181818;stroke-width:1.0;" x1="332" x2="373" y1="1533.9609" y2="1533.9609"/><polygon fill="#181818" points="342,1529.9609,332,1533.9609,342,1537.9609,338,1533.9609" style="stroke:#181818;stroke-width:1.0;"/><text fill="#000000" font-family="sans-serif" font-size="13" lengthAdjust="spacing" textLength="76" x="338" y="1515.895">mint tokens</text><polygon fill="#181818" points="319,1559.0938,329,1563.0938,319,1567.0938,323,1563.0938" style="stroke:#181818;stroke-width:1.0;"/><line style="stroke:#181818;stroke-width:1.0;" x1="103.5" x2="325" y1="1563.0938" y2="1563.0938"/><text fill="#000000" font-family="sans-serif" font-size="13" lengthAdjust="spacing" textLength="89" x="110.5" y="1558.0278">burn(amount)</text><line style="stroke:#181818;stroke-width:1.0;" x1="331" x2="373" y1="1592.2266" y2="1592.2266"/><line style="stroke:#181818;stroke-width:1.0;" x1="373" x2="373" y1="1592.2266" y2="1605.2266"/><line style="stroke:#181818;stroke-width:1.0;" x1="332" x2="373" y1="1605.2266" y2="1605.2266"/><polygon fill="#181818" points="342,1601.2266,332,1605.2266,342,1609.2266,338,1605.2266" style="stroke:#181818;stroke-width:1.0;"/><text fill="#000000" font-family="sans-serif" font-size="13" lengthAdjust="spacing" textLength="76" x="338" y="1587.1606">burn tokens</text><rect fill="#EEEEEE" height="3" style="stroke:#EEEEEE;stroke-width:1.0;" width="891" x="0" y="1633.793"/><line style="stroke:#000000;stroke-width:1.0;" x1="0" x2="891" y1="1633.793" y2="1633.793"/><line style="stroke:#000000;stroke-width:1.0;" x1="0" x2="891" y1="1636.793" y2="1636.793"/><rect fill="#EEEEEE" height="23.1328" style="stroke:#000000;stroke-width:2.0;" width="133" x="379" y="1623.2266"/><text fill="#000000" font-family="sans-serif" font-size="13" font-weight="bold" lengthAdjust="spacing" textLength="114" x="385" y="1639.2935">Pause/Unpause</text><polygon fill="#181818" points="319,1673.4922,329,1677.4922,319,1681.4922,323,1677.4922" style="stroke:#181818;stroke-width:1.0;"/><line style="stroke:#181818;stroke-width:1.0;" x1="103.5" x2="325" y1="1677.4922" y2="1677.4922"/><text fill="#000000" font-family="sans-serif" font-size="13" lengthAdjust="spacing" textLength="49" x="110.5" y="1672.4263">pause()</text><line style="stroke:#181818;stroke-width:1.0;" x1="331" x2="373" y1="1706.625" y2="1706.625"/><line style="stroke:#181818;stroke-width:1.0;" x1="373" x2="373" y1="1706.625" y2="1719.625"/><line style="stroke:#181818;stroke-width:1.0;" x1="332" x2="373" y1="1719.625" y2="1719.625"/><polygon fill="#181818" points="342,1715.625,332,1719.625,342,1723.625,338,1719.625" style="stroke:#181818;stroke-width:1.0;"/><text fill="#000000" font-family="sans-serif" font-size="13" lengthAdjust="spacing" textLength="96" x="338" y="1701.5591">pause contract</text><polygon fill="#181818" points="319,1744.7578,329,1748.7578,319,1752.7578,323,1748.7578" style="stroke:#181818;stroke-width:1.0;"/><line style="stroke:#181818;stroke-width:1.0;" x1="103.5" x2="325" y1="1748.7578" y2="1748.7578"/><text fill="#000000" font-family="sans-serif" font-size="13" lengthAdjust="spacing" textLength="65" x="110.5" y="1743.6919">unpause()</text><line style="stroke:#181818;stroke-width:1.0;" x1="331" x2="373" y1="1777.8906" y2="1777.8906"/><line style="stroke:#181818;stroke-width:1.0;" x1="373" x2="373" y1="1777.8906" y2="1790.8906"/><line style="stroke:#181818;stroke-width:1.0;" x1="332" x2="373" y1="1790.8906" y2="1790.8906"/><polygon fill="#181818" points="342,1786.8906,332,1790.8906,342,1794.8906,338,1790.8906" style="stroke:#181818;stroke-width:1.0;"/><text fill="#000000" font-family="sans-serif" font-size="13" lengthAdjust="spacing" textLength="112" x="338" y="1772.8247">unpause contract</text><!--SRC=[hLLDQ-D03BtxL-You2mfQGzxAPj2IhgGGzib7_HOL5kXGvrnc94tON_zQiPZ9t7jVB3rnGD-UfBUqyYOS6vWOSb4w8_F6otdQ8s6LQBMg1d6ez5qylm4QAjZ50s7CD6A5MRgBxBADGo7aO-5gxiwuXPK1Q9uWrb6VDE7tC5wKGKwmDUa14cksKXHO1cPVCgvGMsNacEZ-1tck7LPNV6791nWiI5fGP7cFk0gBpJt8imOPgHJYL4MQ9jaHKefB4s-0iPj1FBiLLOpxD46heWoItjSEkVJVFUBwTFhQ3oUFinc-vG27NbMY4js-0uMCxAkoG7SNClJkw0ukDfHDiEyOBT0AyMreYyYg4j5VyXrfjD3lNqxvud-Iw2nzQhqeSM0LjkJTqe-G0Oatw1E252dy8QPEtl7HcrVm1RBfGmfXHRFiVO2UntqR8k_tER_iFfYktsdOdaZi3HHGbDA3A4eKHjKplxE5LaSbIbADspvN8gHj8RBFkI2o_Qe9sv6ug4Jf1gqbfrYYMT1irWwB- -qW_ySmezlpPoxk6AToYAfzMu2oqn1g2g1goVS2TUnotBNagIAFT7PIxa2k_iAW6fNTjoMq4W0HLqz1B9T2wwCXt9y1nFjt-KKTsiTfjrTQYSt9icHMnpgUbKsP4aRSNrHfg1UPyMDiAhirl-AHqxqbrIrH36tkwoWLUgpxMdvg3GFxWkZOPv_aBOT6gu45dD-OWKw5B3dQUtuJVB4HnaSecQGydvZOMcmq6ltxgZDVuix2Cl0wZ_SMbMXZpA4ppN7Fm00]--></g></svg>